/* XPM */
static char * 0bold_xpm[] = {
"21 26 3 1",
" 	c None",
".	c #FEFEFE",
"+	c #FFFFFF",
"                     ",
"                     ",
"        .....        ",
"      .++++++.       ",
"     .++.....++      ",
"     ++.     .+.     ",
"    .+.       ++.    ",
"    ++.       .+.    ",
"   .++        .++    ",
"   .++         ++    ",
"   .+.         ++.   ",
"   ++.         ++.   ",
"   ++.         ++.   ",
"   ++.         ++.   ",
"   ++.         ++.   ",
"   ++.         +++   ",
"   .+.         ++.   ",
"   .+.         ++    ",
"   +++        +++    ",
"    ++.       .+.    ",
"    .+.       ++.    ",
"    .++.     .+.     ",
"     .++.  ..++      ",
"      .++++++..      ",
"                     ",
"                     "};
