/* XPM */
static char * score_1_xpm[] = {
"30 30 3 1",
" 	c None",
".	c #FEFEFE",
"+	c #FFFFFF",
"                              ",
"                              ",
"                              ",
"              .               ",
"             .+.              ",
"             .+.              ",
"            .++.              ",
"         ...+++.              ",
"        .++++++.              ",
"         .....+.              ",
"             .+.              ",
"             .+.              ",
"             .+.              ",
"             .+.              ",
"             .+.              ",
"             .+.              ",
"             .+.              ",
"             .+.              ",
"             .+.              ",
"             .+.              ",
"             .+.              ",
"             .+.              ",
"             .+.              ",
"             .+.              ",
"             .+.              ",
"                              ",
"                              ",
"                              ",
"                              ",
"                              "};
