/* XPM */
static char * score_5_xpm[] = {
"30 30 3 1",
" 	c None",
".	c #FEFEFE",
"+	c #FFFFFF",
"                              ",
"                              ",
"                              ",
"                              ",
"        .++++++++++.          ",
"        +++++++++++.          ",
"        .+.........           ",
"        .+.                   ",
"        ++                    ",
"        ++                    ",
"        ++                    ",
"       .+. .....              ",
"       ++..++++++.            ",
"       .++..+ ..++.           ",
"       .+.      .++.          ",
"                 .++          ",
"                  ++          ",
"                  ++.         ",
"                  ++.         ",
"       ..         ++          ",
"       ++        .+.          ",
"       .+.       ++.          ",
"        .+..  ..++.           ",
"         .+++++++.            ",
"           .....              ",
"                              ",
"                              ",
"                              ",
"                              ",
"                              "};
