/* XPM */
static char * 7bold_xpm[] = {
"21 26 3 1",
" 	c None",
".	c #FFFFFF",
"+	c #FEFEFE",
"                     ",
"  ...............+   ",
"  ...............+   ",
"  ...............+   ",
"  ...............+   ",
"             ...+    ",
"            +..+     ",
"           +...      ",
"          +...+      ",
"          +..+       ",
"         +...        ",
"         ...+        ",
"        +...         ",
"        ...+         ",
"       +...+         ",
"       +...          ",
"       ...+          ",
"      +...+          ",
"      +...           ",
"      ....           ",
"      ...+           ",
"     ....+           ",
"     +...+           ",
"     +...+           ",
"                     ",
"                     "};
