/* XPM */
static char * score_9_xpm[] = {
"30 30 3 1",
" 	c None",
".	c #FFFFFF",
"+	c #FEFEFE",
"                              ",
"                              ",
"                              ",
"                              ",
"           .++++              ",
"         +.......+            ",
"        +...  ++..+           ",
"       +..      +.+           ",
"       ...       ..+          ",
"       ..        +.+          ",
"      +..         ..          ",
"      +..        +..          ",
"       ..        +..          ",
"       +.+       ...          ",
"        ..+    ++...          ",
"        ........++..          ",
"          +....+  ..          ",
"                  ..          ",
"                 +.+          ",
"                 +.+          ",
"       +..       ..           ",
"       +..      +.+           ",
"        +..+  ++.+            ",
"         +......+             ",
"          ++.++               ",
"                              ",
"                              ",
"                              ",
"                              ",
"                              "};
