/* XPM */
static char *back_xpm[] = {
    "92 136 13 1",
    " 	c None",
    ".	c #150000",
    "+	c #140000",
    "@	c #150100",
    "#	c #4F3F3E",
    "$	c #C4BEBA",
    "%	c #FFFEF8",
    "&	c #8A7F7C",
    "*	c #C3BEBA",
    "=	c #FEFEF8",
    "-	c #897F7C",
    ";	c #FFFEF9",
    ">	c #150001",
    "           ......................................................................           ",
    "         ..........................................................................         ",
    "       +............................................................................+       ",
    "      +..............................................................................+      ",
    "     +................................................................................+     ",
    "    +.......................@..........................................................+    ",
    "   +....................................................................................+   ",
    "  +......................................................................................+  ",
    "  ............#$%%%%%%%%%%%%%%%%%%%%%%%%%%%%%%%%%%%%%%%%%%%%%%%%%%%%%%%%%%%%$#............  ",
    " ...........#$%%%%%%%%%%%%%%%%%%%%%%%%%%%%%%%%%%%%%%%%%%%%%%%%%%%%%%%%%%%%%%%%$#........... ",
    " ..........&%%%%%%%%%%%%%%%%%%%%%%%%%%%%%%%%%%%%%%%%%%%%%%%%%%%%%%%%%%%%%%%%%%%%&.......... ",
    "..........&%%%%%%%%%%%%%%%%%%%%%%%%%%%%%%%%%%%%%%%%%%%%%%%%%%%%%%%%%%%%%%%%%%%%%%&..........",
    ".........#%%%%%%%%%%%%%%%%%%%%%%%%%%%%%%%%%%%%%%%%%%%%%%%%%%%%%%%%%%%%%%%%%%%%%%%%#.........",
    ".........$%%%%%%%%%%%%%%%%%%%%%%%%%%%%%%%%%%%%%%%%%%%%%%%%%%%%%%%%%%%%%%%%%%%%%%%%$.........",
    "........#%%%%%%%%%%%%%%%%%%%%%%%%%%%%%%%%%%%%%%%%%%%%%%%%%%%%%%%%%%%%%%%%%%%%%%%%%%#........",
    "........$%%%%%%%%%%%%%%%%%%%%%%%%%%%%%%%%%%%%%%%%%%%%%%%%%%%%%%%%%%%%%%%%%%%%%%%%%%$........",
    "........%%%%%%%%%%%%%%%%%%%%%%$#...&%%%%%%%%%%$#...&%%%%%%%%%%$#...&%%%%%%%%%%%%%%%%........",
    "........%%%%%%%%%%%%%%%%%%%%$#......%%%%%%%%$#@.....%%%%%%%%$#......%%%%%%%%%%%%%%%%........",
    "........%%%%%%%%%%%%%%%%%%%&.......&%%%%%%%&.......&%%%%%%%&.......&%%%%%%%%%%%%%%%%........",
    "........%%%%%%%%%%%%%%%%%%&.......&%%%%%%%&.......&%%%%%%%&.......&%%%%%%%%%%%%%%%%%........",
    "........%%%%%%%%%%%%%%%%%&.......&%%%%%%%&.......&%%%%%%%&.......&%%%%%%%&.&%%%%%%%%........",
    "........%%%%%%%%%%%%%%%%&.......&%%%%%%%&.......&%%%%%%%&.......&%%%%%%%&...%%%%%%%%........",
    "........%%%%%%%%%%%%%%%&.......&%%%%%%%&.......&%%%%%%%&.......&%%%%%%%&....%%%%%%%%........",
    "........%%%%%%%%%%%%%%&.......&%%%%%%%&.......&%%%%%%%&.......&%%%%%%%&.....%%%%%%%%........",
    "........%%%%%%%%%%%%%&.......&%%%%%%%&.......&%%%%%%%&.......&%%%%%%%&.....#%%%%%%%%........",
    "........%%%%%%%%%%%%&.......&%%%%%%%&.......&%%%%%%%&.......&%%%%%%%&......$%%%%%%%%........",
    "........%%%%%%%%%%%&.......&%%%%%%%&.......&%%%%%%%&.......&%%%%%%%&......#%%%%%%%%%........",
    "........%%%%%%%%%%&.......&%%%%%%%&.......&%%%%%%%&.......&%%%%%%%&@......$%%%%%%%%%........",
    "........%%%%%%%%%$.......&%%%%%%%&.......&%%%%%%%&.......&%%%%%%%&@......&%%%%%%%%%%........",
    "........%%%%%%%%%#......&%%%%%%%&.......&%%%%%%%&.......&%%%%%%%&@@.....&%%%%%%%%%%%........",
    "........%%%%%%%%$......&%%%%%%%&.......&%%%%%%%&.......&%%%%%%%&@@.....&%%%%%%%%%%%%........",
    "........%%%%%%%%#.....&%%%%%%%&.......&%%%%%%%&.......&%%%%%%%&@......&%%%%%%%%%%%%%........",
    "........%%%%%%%%.....&%%%%%%%&.......&%%%%%%%&.......&%%%%%%%&.......&%%%%%%%%%%%%%%........",
    "........%%%%%%%%....&%%%%%%%&.......&%%%%%%%&.......&%%%%%%%&.......&%%%%%%%%%%%%%%%........",
    "........%%%%%%%%...&%%%%%%%&.......&%%%%%%%&.......&%%%%%%%&.......&%%%%%%%%%%%%%%%%........",
    "........%%%%%%%%&.&%%%%%%%&.......&%%%%%%%&.......&%%%%%%%&.......&%%%%%%%%%%%%%%%%%........",
    "........%%%%%%%%%%%%%%%%%&.......&%%%%%%%&.......&%%%%%%%&.......&%%%%%%%&.&%%%%%%%%........",
    "........%%%%%%%%%%%%%%%%&.......&%%%%%%%&.......&%%%%%%%&.......&%%%%%%%&...%%%%%%%%........",
    "........%%%%%%%%%%%%%%%&.......&%%%%%%%&.......&%%%%%%%&.......&%%%%%%%&....%%%%%%%%........",
    "........%%%%%%%%%%%%%%&.......&%%%%%%%&.......&%%%%%%%&.......&%%%%%%%&.....%%%%%%%%........",
    "........%%%%%%%%%%%%%&.......&%%%%%%%&.......&%%%%%%%&.......&%%%%%%%&.....#%%%%%%%%........",
    "........%%%%%%%%%%%%&.......&%%%%%%%&.......&%%%%%%%&.......&%%%%%%%&......$%%%%%%%%........",
    "........%%%%%%%%%%%&.......&%%%%%%%&.......&%%%%%%%&.......&%%%%%%%&......#%%%%%%%%%........",
    "........%%%%%%%%%%&.......&%%%%%%%&.......&%%%%%%%&.......&%%%%%%%&.......$%%%%%%%%%........",
    "........%%%%%%%%%$.......&%%%%%%%&.......&%%%%%%%&.......&%%%%%%%&.......&%%%%%%%%%%........",
    "........%%%%%%%%%#......&%%%%%%%&.......&%%%%%%%&.......&%%%%%%%&.......&%%%%%%%%%%%........",
    "........%%%%%%%%$......&%%%%%%%&.......&%%%%%%%&.......&%%%%%%%&.......&%%%%%%%%%%%%........",
    "........%%%%%%%%#.....&%%%%%%%&.......&%%%%%%%&.......&%%%%%%%&.......&%%%%%%%%%%%%%........",
    "........%%%%%%%%.....&%%%%%%%&.......&%%%%%%%&.......&%%%%%%%&.......&%%%%%%%%%%%%%%........",
    "........%%%%%%%%....&%%%%%%%&.......&%%%%%%%&.......&%%%%%%%&.......&%%%%%%%%%%%%%%%........",
    "........%%%%%%%%...&%%%%%%%&.......&%%%%%%%&.......&%%%%%%%&.......&%%%%%%%%%%%%%%%%........",
    "........%%%%%%%%&.&%%%%%%%&.......&%%%%%%%&.......&%%%%%%%&.......&%%%%%%%%%%%%%%%%%........",
    "........%%%%%%%%%%%%%%%%%&.......&%%%%%%%&.......&%%%%%%%&.......&%%%%%%%&.&%%%%%%%%........",
    "........%%%%%%%%%%%%%%%%&.......&%%%%%%%&.......&%%%%%%%&.......&%%%%%%%&...%%%%%%%%........",
    "........%%%%%%%%%%%%%%%&.......&%%%%%%%&.......&%%%%%%%&.......&%%%%%%%&....%%%%%%%%........",
    "........%%%%%%%%%%%%%%&.......&%%%%%%%&.......&%%%%%%%&.......&%%%%%%%&.....%%%%%%%%........",
    "........%%%%%%%%%%%%%&.......&%%%%%%%&.......&%%%%%%%&.......&%%%%%%%&.....#%%%%%%%%........",
    "........%%%%%%%%%%%%&.......&%%%%%%%&.......&%%%%%%%&.......&%%%%%%%&......*%%%%%%%%........",
    "........%%%%%%%%%%%&.......&%%%%%%%&.......&%%%%%%%&.......&%%%%%%%&......#=%%%%%%%%........",
    "........%%%%%%%%%%&.......&%%%%%%%&.......&%%%%%%%&.......&%%%%%%%&.......*=%%%%%%%%........",
    "........%%%%%%%%%$.......&%%%%%%%&.......&%%%%%%%&.......&%%%%%%%&.......-==%%%%%%%%........",
    "........%%%%%%%%%#......&%%%%%%%&.......&%%%%%%%&.......&%%%%%%%&.......-===%%%%%%%%........",
    "........%%%%%%%%$......&%%%%%%%&.......&%%%%%%%&.......&%%%%%%%&.......-===%%%%%%%%%........",
    "........%%%%%%%%#.....&%%%%%%%&.......&%%%%%%%&.......&%%%%%%%&.......-===%%%%%%%%%%........",
    "........%%%%%%%%.....&%%%%%%%&.......&%%%%%%%&.......&%%%%%%%&.......&%%%%%%%%%%%%%%........",
    "........%%%%%%%%....&%%%%%%%&.......&%%%%%%%&.......&%%%%%%%&.......&%%%%%%%%%%%%%%%........",
    "........%%%%%%%%...&%%%%%%%&.......&%%%%%%%&.......&%%%%%%%&.......&%%%%%%%%%%%%%%%%........",
    "........%%%%%%%%&.&%%%%%%%&.......&%%%%%%%&.......&%%%%%%%&.......&%%%%%%%%%%%%%%%%%........",
    "........%%%%%%%%%%%%%%%%%&.......&%%%%%%%&.......&%%%%%%%&.......&%%%%%%%&.&%%%%%%%%........",
    "........%%%%%%%%%%%%%%%%&.......&%%%%%%%&.......&%%%%%%%&.......&%%%%%%%&...%%%%%%%%........",
    "........%%%%%%%%%%%%%%%&.......&%%%%%%%&.......&%%%%%%%&.......&%%%%%%%&....%%%%%%%%........",
    "........%%%%%%%%%%%%%%&.......&%%%%%%%&.......&%%%%%%%&.......&%%%%%%%&.....%%%%%%%%........",
    "........%%%%%%%%%%%%%&.......&%%%%%%%&.......&%%%%%%%&.......&%%%%%%%&.....#%%%%%%%%........",
    "........%%%%%%%%%%%%&.......&%%%%%%%&.......&%%%%%%%&.......&%%%%%%%&......$%%%%%%%%........",
    "........%%%%%%%%%%%&.......&%%%%%%%&.......&%%%%%%%&.......&%%%%%%%&......#%%%%%%%%%........",
    "........%%%%%%%%%%&.......&%%%%%%%&.......&%%%%%%%&.......&%%%%%%%&.......$%%%%%%%%%........",
    "........%%%%%%%%%$.......&%%%%%%%&.......&%%%%%%%&.......&%%%%%%%&.......&%%%%%%%%%%........",
    "........%%%%%%%%%#......&%%%%%%%&.......&%%%%%%%&.......&%%%%%%%&.......&%%%%%%%%%%%........",
    "........%%%%%%%%$......&%%%%%%%&.......&%%%%%%%&.......&%%%%%%%&.......&%%%%%%%%%%%%........",
    "........%%%%%%%%#.....&%%%%%%%&.......&%%%%%%%&.......&%%%%%%%&.......&%%%%%%%%%%%%%........",
    "........%%%%%%%%.....&%%%%%%%&.......&%%%%%%%&.......&%%%%%%%&.......&%%%%%%%%%%%%%%........",
    "........%%%%%%%%....&%%%%%%%&.......&%%%%%%%&.......&%%%%%%%&.......&%%%%%%%%%%%%%%%........",
    "........%%%%%%%%...&%%%%%%%&.......&%%%%%%%&.......&%%%%%%%&.......&%%%%%%%%%%%%%%%%........",
    "........%%%%%%%%&.&%%%%%%%&.......&%%%%%%%&.......&%%%%%%%&.......&%%%%%%%%%%%%%%%%%........",
    "........%%%%%%%%%%%%%%%%%&.......&%%%%%%%&.......&%%%%%%%&.......&%%%%%%%&.&%%%%%%%%........",
    "........%%%%%%%%%%%%%%%%&.......&%%%%%%%&.......&%%%%%%%&.......&%%%%%%%&...%%%%%%%%........",
    "........%%%%%%%%%%%%%%%&.......&%%%%%%%&.......&%%%%%%%&.......&%%%%%%%&....%%%%%%%%........",
    "...+....%%%%%%%%%%%%%%&.......&%%%%%%%&.......&%%%%%%%&.......&%%%%%%%&.....%%%%%%%%........",
    "........%%%%%%%%%%%%%&.......&%%%%%%%&.......&%%%%%%%&.......&%%%%%%%&.....#%%%%%%%%........",
    "........%%%%%%%%%%%%&.......&%%%%%%%&.......&%%%%%%%&.......&%%%%%%%&......$%%%%%%%%........",
    "........%%%%%%%%%%%&.......&%%%%%%%&.......&%%%%%%%&.......&%%%%%%%&......#%%%%%%%%%........",
    "........%%%%%%%%%%&.......&%%%%%%%&.......&%%%%%%%&.......&%%%%%%%&.......$%%%%%%%%%........",
    "........%%%%%%%%%$.......&%%%%%%%&.......&%%%%%%%&.......&%%%%%%%&.......&%%%%%%%%%%........",
    "........%%%%%%%%%#......&%%%%%%%&.......&%%%%%%%&.......&%%%%%%%&.......&%%%%%%%%%%%........",
    "........%%%%%%%%$......&%%%%%%%&.......&%%%%%%%&.......&%%%%%%%&.......&%%%%%%%%%%%%........",
    "........%%%%%%%%#.....&%%%%%%%&.......&%%%%%%=&.......&%%%%%%%&.......&%%%%%%%%%%%%%........",
    "........%%%%%%%%.....&%%%%%%%&.......&%%%%%%%&.......&%%%%%%%&.......&%%%%%%%%%%%%%%........",
    "........%%%%%%%%....&%%%%%%%&.......&%%%%%%%&.......&%%%%%%%&.......&%%%%%%%%%%%%%%%........",
    "........%%%%%%%%...&%%%%%%%&.......&%%%%%%%&.......&%%%%%%%&.......&%%%%%%%%%%%%%%%%........",
    "........%%%%%%%%&.&%%%%%%%&.......&%%%%%%%&.......&%%%%%%%&.......&%%%%%%%%%%%%%%%%%........",
    "........%%%%%%%%%%%%%%%%%&.......&%%%%%%%&.......&%%%%%%%&.......&%%%%%%%&.&%%%%%%%%........",
    "........%%%%%%%%%%%%%%%%&.......&%%%%%%%&.......&%%%%%%%&.......&%%%%%%%&...%%%%%%%%........",
    "........%%%%%%%%%%%%%%%&.......&%%%%%%%&.......&%%%%%%%&.......&%%%%%%%&....%%%%%%%%........",
    "........%%%%%%%%%%%%%%&.......&%%%%%%%&.......&%%%%%%%&.......&%%%%%%%&.....%%%%%%%%........",
    "........%%%%%%%%%%%%%&.......&%%%%%%%&.......&%%%%%%%&.......&%%%%%%%&.....#%%%%%%%%........",
    "........%%%%%%%%%%%%&.......&%%%%%%%&.......&%%%%%%%&.......&%%%%%%%&......$%%%%%%%%........",
    "........%%%%%%%%%%%&.......&%%%%%%%&.......&%%%%%%%&.......&%%%%%%%&......#%%%%%%%%%........",
    "........%%%%%%%%%%&.......&%%%%%%%&.......&%%%%%%%&.......&%%%%%%%&.......$%%%%%%%%%........",
    "........%%%%%%%%%$.......&%%%%%%%&.......&%%%%%%%&.......&%%%%%%%&.......&%%%%%%%%%%........",
    "........%%%%%%%%%#......&%%%%%%%&.......&%%%%%%%&.......&%%%%%%%&.......&%;%%%%%%%%%........",
    "........%%%%%%%%$......&%%%%%%%&.......&%%%%%%%&.......&%%%%%%%&.......&%%%%%%%%%%%%........",
    "........%%%%%%%%#.....&%%%%%%%&.......&%%%%%%%&.......&%%%%%%%&.......&%%%%%%%%%%%%%........",
    "........%%%%%%%%.....&%%%%%%%&.......&%%%%%%%&.......&%%%%%%%&.......&%%%%%%%%%%%%%%........",
    "........%%%%%%%%....&%%%%%%%&.......&%%%%%%%&.......&%%%%%%%&.......&%%%%%%%%%%%%%%%........",
    "........%%%%%%%%...&%%%%%%%&.......&%%%%%%%&.......&%%%%%%%&.......&%%%%%%%%%%%%%%%%........",
    "........%%%%%%%%&.&%%%%%%%&.......&%%%%%%%&.......&%%%%%%%&.......&%%%%%%%%%%%%%%%%%........",
    "........%%%%%%%%%%%%%%%%%&.......&%%%%%%%&.......&%%%%%%%&.......&%%%%%%%%%%%%%%%%%%........",
    "........%%%%%%%%%%%%%%%%&.......&%%%%%%%&.......&%%%%%%%&.......&%%%%%%%%%%%%%%%%%%%........",
    "........%%%%%%%%%%%%%%%%......#$%%%%%%%%......#$%%%%%%%%......#$%%%%%%%%%%%%%%%%%%%%........",
    "........%%%%%%%%%%%%%%%%&...#$%%%%%%%%%%&...#$%%%%%%%%%%&...#$%%%%%%%%%%%%%%%%%%%%%%........",
    ".....>..$%%%%%%%%%%%%%%%%%%%%%%%%%%%%%%%%%%%%%%%%%%%%%%%%%%%%%%%%%%%%%%%%%%%%%%%%%%$........",
    "........#%%%%%%%%%%%%%%%%%%%%%%%%%%%%%%%%%%%%%%%%%%%%%%%%%%%%%%%%%%%%%%%%%%%%%%%%%%#........",
    ".........$%%%%%%%%%%%%%%%%%%%%%%%%%%%%%%%%%%%%%%%%%%%%%%%%%%%%%%%%%%%%%%%%%%%%%%%%$.........",
    ".........#%%%%%%%%%%%%%%%%%%%%%%%%%%%%%%%%%%%%%%%%%%%%%%%%%%%%%%%%%%%%%%%%%%%%%%%%#.........",
    "..........&%%%%%%%%%%%%%%%%%%%%%%%%%%%%%%%%%%%%%%%%%%%%%%%%%%%%%%%%%%%%%%%%%%%%%%&..........",
    " ..........&%%%%%%%%%%%%%%%%%%%%%%%%%%%%%%%%%%%%%%%%%%%%%%%%%%%%%%%%%%%%%%%%%%%%&.......... ",
    " ...........#$%%%%%%%%%%%%%%%%%%%%%%%%%%%%%%%%%%%%%%%;%%%%%%%%%%%%%%%%%%%%%%%%$#........... ",
    "  ............#$%%%%%%%%%%%%%%%%%%%%%%%%%%%%%%%%%%%%%%%%%%%%%%%%%%%%%%%%%%%%$#............  ",
    "  +......................................................................................+  ",
    "   +....................................................................................+   ",
    "    +..................................................................................+    ",
    "     +................................................................................+     ",
    "      +..............................................................................+      ",
    "       +............................................................................+       ",
    "         ..........................................................................         ",
    "           ......................................................................           "};
