/* XPM */
static char * barra_xpm[] = {
"30 30 3 1",
" 	c None",
".	c #FEFEFE",
"+	c #FFFFFF",
"                              ",
"                              ",
"                              ",
"                  ..          ",
"                  ..          ",
"                  +           ",
"                 .+           ",
"                 ..           ",
"                 +            ",
"                 +            ",
"                ..            ",
"                +.            ",
"                +             ",
"               ..             ",
"               ..             ",
"               +              ",
"              ..              ",
"              ..              ",
"              +               ",
"             ..               ",
"             ..               ",
"             +                ",
"            .+                ",
"            ..                ",
"            +                 ",
"                              ",
"                              ",
"                              ",
"                              ",
"                              "};
