/* XPM */
static char * medium_xpm[] = {
"92 55 129 2",
"  	c #000000",
". 	c #7C7C7C",
"+ 	c #FFFFFF",
"@ 	c #FCFCFC",
"# 	c #4B4B4B",
"$ 	c #3A3A3A",
"% 	c #FAFAFA",
"& 	c #888888",
"* 	c #616161",
"= 	c #EFEFEF",
"- 	c #ADADAD",
"; 	c #C9C9C9",
"> 	c #A6A6A6",
", 	c #9B9B9B",
"' 	c #DBDBDB",
") 	c #D3D3D3",
"! 	c #828282",
"~ 	c #C0C0C0",
"{ 	c #989898",
"] 	c #F4F4F4",
"^ 	c #F2F2F2",
"/ 	c #494949",
"( 	c #2E2E2E",
"_ 	c #F8F8F8",
": 	c #F6F6F6",
"< 	c #F0F0F0",
"[ 	c #F3F3F3",
"} 	c #C6C6C6",
"| 	c #A4A4A4",
"1 	c #949494",
"2 	c #CECECE",
"3 	c #EEEEEE",
"4 	c #424242",
"5 	c #0D0D0D",
"6 	c #868686",
"7 	c #DADADA",
"8 	c #929292",
"9 	c #C1C1C1",
"0 	c #E1E1E1",
"a 	c #D9D9D9",
"b 	c #8D8D8D",
"c 	c #959595",
"d 	c #D7D7D7",
"e 	c #F1F1F1",
"f 	c #E2E2E2",
"g 	c #8F8F8F",
"h 	c #AAAAAA",
"i 	c #B2B2B2",
"j 	c #C2C2C2",
"k 	c #B0B0B0",
"l 	c #C5C5C5",
"m 	c #9A9A9A",
"n 	c #BDBDBD",
"o 	c #939393",
"p 	c #F9F9F9",
"q 	c #DFDFDF",
"r 	c #ACACAC",
"s 	c #323232",
"t 	c #BABABA",
"u 	c #C7C7C7",
"v 	c #161616",
"w 	c #FBFBFB",
"x 	c #454545",
"y 	c #222222",
"z 	c #2A2A2A",
"A 	c #7A7A7A",
"B 	c #FEFEFE",
"C 	c #F7F7F7",
"D 	c #FDFDFD",
"E 	c #BCBCBC",
"F 	c #E9E9E9",
"G 	c #F5F5F5",
"H 	c #E3E3E3",
"I 	c #C8C8C8",
"J 	c #A2A2A2",
"K 	c #D0D0D0",
"L 	c #CFCFCF",
"M 	c #565656",
"N 	c #A8A8A8",
"O 	c #969696",
"P 	c #6E6E6E",
"Q 	c #E5E5E5",
"R 	c #585858",
"S 	c #8A8A8A",
"T 	c #5E5E5E",
"U 	c #898989",
"V 	c #CACACA",
"W 	c #B1B1B1",
"X 	c #DCDCDC",
"Y 	c #EBEBEB",
"Z 	c #3D3D3D",
"` 	c #A7A7A7",
" .	c #8B8B8B",
"..	c #1C1C1C",
"+.	c #353535",
"@.	c #5D5D5D",
"#.	c #4D4D4D",
"$.	c #515151",
"%.	c #A0A0A0",
"&.	c #D4D4D4",
"*.	c #D6D6D6",
"=.	c #ECECEC",
"-.	c #919191",
";.	c #DEDEDE",
">.	c #8C8C8C",
",.	c #9C9C9C",
"'.	c #727272",
").	c #404040",
"!.	c #B6B6B6",
"~.	c #CCCCCC",
"{.	c #9E9E9E",
"].	c #7E7E7E",
"^.	c #595959",
"/.	c #C3C3C3",
"(.	c #B9B9B9",
"_.	c #E8E8E8",
":.	c #BFBFBF",
"<.	c #EDEDED",
"[.	c #D5D5D5",
"}.	c #636363",
"|.	c #DDDDDD",
"1.	c #909090",
"2.	c #EAEAEA",
"3.	c #A5A5A5",
"4.	c #535353",
"5.	c #E4E4E4",
"6.	c #474747",
"7.	c #878787",
"8.	c #696969",
"                                                                                                                                                                                        ",
"                                                                                                                                                                                        ",
"                                                                                                                                                                                        ",
"                                                                                                                                                                                        ",
"                                                                                                                                                                                        ",
"                                                                                                                                                                                        ",
"                                                                                                                                                                                        ",
"                                                                                                                                                                                        ",
"                                                                                                                                                                                        ",
"                                                                                                                                                                                        ",
"                                                                                                                                                                                        ",
"                                                                                                                                                                                        ",
"                                                                                                                                                                                        ",
"          . + + @ #                 $ % + + &                                               * + =     - + ;                                                                             ",
"          . + + + >                 , + + + &                                               * + =     - + ;                                                                             ",
"          . + + + '                 ) + + + &                                               * + =     ! ~ {                                                                             ",
"          . + ] ^ @ /             ( _ : < + &                                               * + =                                                                                       ",
"          . + [ } + |             1 + 2 3 + &                                               * + =                                                   4 5                                 ",
"          . + [ 6 + 7             2 + 8 3 + &         4 9 0 _ ^ a b             c d e _ f g * + =     h + ;     i + j           k + l     m + n o < + p q r   s t f _ = u /             ",
"          . + [ v [ w x         y : _ z 3 + &       A = + + ] @ + + j         9 + + B C + D E + =     h + ;     i + j           k + l     m + 0 @ @ F G + + E H + 3 3 + + 7             ",
"          . + [   I + J         b + K   3 + &     z 3 + L M   ( N p + J     O + B n #   P Q + + =     h + ;     i + j           k + l     m + + f R   z ) + + : S     N + + T           ",
"          . + [   U + a         V + {   3 + &     W + X           h + 3   5 Y + 9         Z G + =     h + ;     i + j           k + l     m + % R       P + + `         3 +  .          ",
"          . + [   ..] w 4     v ] p +.  3 + &     q + 1           s D + * @.+ w #.          E + =     h + ;     i + j           k + l     m + 0         +.+ + $.        q + g           ",
"          . + [     V + %.    6 + &.    3 + &     ^ + *.2 2 2 2 2 2 % + S  .+ =.            -.+ =     h + ;     i + j           k + l     m + d         ( + D           ;.+ g           ",
"          . + [     >.+ d     l + ,.    3 + &   ..B + + + + + + + + + + 1 %.+ ;.            '.+ =     h + ;     i + j           k + l     m + d         ( + @           ;.+ g           ",
"          . + [     ..G % ).  e % $     3 + &     [ + M                   6 + Y             ! + =     h + ;     i + j           !.+ l     m + d         ( + @           ;.+ g           ",
"          . + [       ~.+ {.].+ d       3 + &     0 + U           v >.>.  ^.+ w /           h + =     h + ;     i + /.          2 + l     m + d         ( + @           ;.+ g           ",
"          . + [       g + *.9 + %.      3 + &     (.+ ' ..        J + 0     _.+ :.        y <.+ =     h + ;     k + [.        #.C + l     m + d         ( + @           ;.+ g           ",
"          . + [       y : % = w x       3 + &     $ [ + d }.  5 ,.p + ,.    o + B (.4   * |.+ D =     h + ;     b + @ 1.    R 0 + + l     m + d         ( + @           ;.+ g           ",
"          . + [         2 + + 7         3 + &       U ] + + ] _ + + 9         9 B + D G + + E [ =     h + ;     y H + + <.2.D + 0 + l     m + d         ( + @           ;.+ g           ",
"          . + [         8 + + 3.        3 + &         4.} 5.p < 7 S             1 *.< % Q {.  [ =     h + ;       6.9 =.@ + D /.7.+ l     m + d         ( + @           ;.+ g           ",
"                                                                                                                        ..8.x                                                           ",
"                                                                                                                                                                                        ",
"                                                                                                                                                                                        ",
"                                                                                                                                                                                        ",
"                                                                                                                                                                                        ",
"                                                                                                                                                                                        ",
"                                                                                                                                                                                        ",
"                                                                                                                                                                                        ",
"                                                                                                                                                                                        ",
"                                                                                                                                                                                        ",
"                                                                                                                                                                                        ",
"                                                                                                                                                                                        ",
"                                                                                                                                                                                        ",
"                                                                                                                                                                                        ",
"                                                                                                                                                                                        ",
"                                                                                                                                                                                        ",
"                                                                                                                                                                                        ",
"                                                                                                                                                                                        ",
"                                                                                                                                                                                        ",
"                                                                                                                                                                                        ",
"                                                                                                                                                                                        ",
"                                                                                                                                                                                        ",
"                                                                                                                                                                                        ",
"                                                                                                                                                                                        "};
