/* XPM */
static char * number6_xpm[] = {
"92 136 16 1",
" 	c None",
".	c #150000",
"+	c #140000",
"@	c #150100",
"#	c #4F3F3E",
"$	c #C4BEBA",
"%	c #FFFEF8",
"&	c #8A7F7C",
"*	c #FAF9F1",
"=	c #F0EFE4",
"-	c #ECEADE",
";	c #F5F4EB",
">	c #FFFEF9",
",	c #FEFEF8",
"'	c #FFFFF8",
")	c #150001",
"           ......................................................................           ",
"         ..........................................................................         ",
"       +............................................................................+       ",
"      +..............................................................................+      ",
"     +................................................................................+     ",
"    +..................................................................................+    ",
"   +......@.............................................................................+   ",
"  +......................................................................................+  ",
"  ............#$%%%%%%%%%%%%%%%%%%%%%%%%%%%%%%%%%%%%%%%%%%%%%%%%%%%%%%%%%%%%$#............  ",
" ...........#$%%%%%%%%%%%%%%%%%%%%%%%%%%%%%%%%%%%%%%%%%%%%%%%%%%%%%%%%%%%%%%%%$#........... ",
" ..........&%%%%%%%%%%%%%%%%%%%%%%%%%%%%%%%%%%%%%%%%%%%%%%%%%%%%%%%%%%%%%%%%%%%%&.......... ",
"..........&%%%%%%%%%%%%%%%%%%%%%%%%%%%%%%%%%%%%%%%%%%%%%%%%%%%%%%%%%%%%%%%%%%%%%%&..........",
".........#%%%%%%%%%%%%%%%%%%%%*=----------------------------------------=*%%%%%%%%#.........",
".........$%%%%%%%%%%%%%%%%%%*=--------------------------------------------=*%%%%%%$.........",
"........#%%%%%%%%%%%%%%%%%%%*=----------------------------------------------;%%%%%%#........",
"........$%%%%%%%%%%%%%%%%%%%%%*=---------------------------------------------;%%%%%$........",
"........%%%%%%%%%%$##$%%%%%%%%%%%%%%%%%%%%%%%%%%%%%%%%%%%%%%%%%%%%%%*=--------*%%%%%........",
"........%%%%%%%%$#....#$%%%%%%%%%%%%%%%%%%%%%%%%%%%%%%%%%%%%%%%%%%%%%%*=------=%%%%%........",
"........%%%%%%%&........&%%%%%%%%%%%%%%%%%%%%%%%%%%%%%%%%%%%%%%%%%%%%%%%;------*%%%%........",
"........%%%%%%&..........&%%%%%%%%%%%%%%%%%%%%%%%%%%%%%%%%%%%%%%%>%%%%%%%;-----=%%%%........",
"........%%%%%$............$%%%%%%%%%%,,%%%%%%%%%%%%%%%%%%%%%%%%%%%%%%%%%%%=-----%%%%........",
"........%%%%%#............#%%%%%%%%%,,,,%%%%%%%%%%%%%%%%%%%%%%%%%%%%%%%%%%*-----%%%%........",
"........%%%%$..............$%%%%%%%%,,,,%%%%%%%%%%%%%%%%%%%%%%%%%%%%%%%%%%%=----%%%%........",
"........%%%%#..............#%%%%%%%%%,,%%%%%%%%%%%%%%%%%%%%%%%%%%%%%%%%%%%%*----%%%%........",
"........%%%%#..............#%%%%%%%%%%%%%%%%%%%%%%%%%%%%%%%%%%%%%%%%%%%%%%%%----%%%%........",
"........%%%%$..............$%%%%%%%%%%%%%%%%%%%%%%%%%%%%%%%%%%%%%%%%%%%%%%%%----%%%%........",
"........%%%%%#............#%%%%%%%'%%%%%%%%%%%%%%%%%%%%%%%%%%%%%%%%%%%%%%%%%----%%%%........",
"........%%%%%$............$%%%%%%%%%%%%%%%%%%%%%%%%%%%%%%%%%%%%%%%%%%%%%%%%%----%%%%........",
"........%%%%%%&..........&%%%%%%%%%%%%%%%%%%%%%%%%%%%%%%%%%%%%%%%%%%%%%%%%%%----%%%%........",
"........%%%%%%%&........&%%%%%%%%%%%%%%%%%%%%%%%%%%%%%%%%%%%%%%%%%%%%%%%%%%%----%%%%........",
"........%%%%%%%&........&%%%%%%%%%%%%%%%%%%%%%%%%%%%%%%%%%%%%%%%%%%%%%%%%%%%----%%%%........",
"........%%%%%%&..........&%%%%%%%%%%%%%%%%%%%%%%%%%%%%%%%%%%%%%%%%%%%%%%%%%%----%%%%........",
"........%%%%%&............&%%%%%%%%%%%%%%%%%%%%%%%%%%%%%%%%%%%%%%%%%%%%%%%%%----%%%%........",
"........%%%%&..............&%%%%%%%%%%%%%%%%%%%%%%%%%%%%%%%%%%%%%%%%%%%%%%%%----%%%%........",
"........%%%%................%%%%%%%%%%%%%%%%%%%%%%%%%%%%%%%%%%%%%%%%%%%%%%%%----%%%%........",
"........%%%%&..............&%%%%%%%%%%%%%%%%%%%%%%%%%%%%%%%%%%%%%%%%%%%%%%%%----%%%%........",
"........%%%%%%%%%%%%%%%%%%%%%%%%%%%%%%%%%%%%%%%%%%%%%%%%%%%%%%%%%%%%%%%%%%%%----%%%%........",
"........%%%%%%%%%%%%%%%%%%%%%%%%%%%%%%%%%%%%%%%%%%%%%%%%%%%%%%%%%%%%%%%%%%%%----%%%%........",
"........%%%%%%%%%%%%%%%%%%%%%%%%%%%%%%%%%%%%%%%%%%%%%%%%%%%%%%%%%%%%%%%%%%%%----%%%%........",
"........%%%%%%%%%%%%%%%%%%%%%%%%%%%%%%%%%%%%%%%%%%%%%%%%%%%%%%%%%%%%%%%%%%%%----%%%%........",
"........%%%%%%%%%%%%%%%%%%%%%%%%%%%%%%%%%%%%%%%%%%%%%%%%%%%%%%%%%%%%%%%%%%%%----%%%%........",
"........%%%%%%%%%%%%%%%%%%%%%%%%%%%%%%%%%%%%%%%%%%%%%%%%%%%%%%%%%%%%%%%%%%%%----%%%%........",
"........%%%%%%%%%%%%%%%%%%%%%%%%%%%%%%%%%%%%%%%%%%%%%%%%%%%%%%%%%%%%%%%%%%%%----%%%%........",
"........%%%%%%%%%%%%%%%%%%%%%%%%%%%%%%%%%%%%%%%%%%%%%%%%%%%%%%%%%%%%%%%%%%%%----%%%%........",
"........%%%%%**%%%%%%%%%%%%%%%%%%%%%%%%%%%%%%%%%%%%%%%%%%%%%%%%%%%%%%%%%%%%%----%%%%........",
"........%%%%%==%%%%%%%%%%%%%%%%%%%%%%%%%%%%%%%%%%%%%%%%%%%%%%%%%%%%%%%%%%%%%----%%%%........",
"........%%%%*--*%%%%%%%%%%%%%%%%%%%%%%%%%%%%%%%%%%%%%%%%%%%%%%%%%%%%%%%%%%%%----%%%%........",
"........%%%%=--=%%%%%%%%%%%%%%%%%%%%%%%%%%%%%%%%%%%%%%%%%%%%%%%%%%%%%%%%%%%%----%%%%........",
"........%%%%----%%%%%%%%%%%%%%%%%%%%%%$#............#$%%%%%%%%%%%%%%%%%%%%%%----%%%%........",
"........%%%%----%%%%%%%%%%%%%%%%%%%%$#................#$%%%%%%%%%%%%%%%%%%%%----%%%%........",
"........%%%%----%%%%%%%%%%%%%%%%%%%&....................&%%%%%%%%%%%%%%%%%%%----%%%%........",
"........%%%%----%%%%%%%%%%%%%%%%%%&......................&%%%%%%%%%%%%%%%%%%----%%%%........",
"........%%%%----%%%%%%%%%%%%%%%%%$........#$%%%%$#........$%%%%%%%%%%%%%%%%%----%%%%........",
"........%%%%----%%%%%%%%%%%%%%%%%#......#$%%%%%%%%$#......#%%%%%%%%%%%%%%%%%----%%%%........",
"........%%%%----%%%%%%%%%%%%%%%%$......&%%%%%%%%%%%%&......$%%%%%%%%%%%%%%%%----%%%%........",
"........%%%%----%%%%%%%%%%%%%%%%#.....&%%%%%%%%%%%%%%&.....#%%%%%%%%%%%%%%%%----%%%%........",
"........%%%%----%%%%%%%%%%%%%%%%.....#%%%%%%%%%%%%%%%%#.....%%%%%%%%%%%%%%%%----%%%%........",
"........%%%%----%%%%%%%%%%%%%%%%.....$%%%%%%%%%%%%%%%%$.....%%%%%''%%%%%%%%%----%%%%........",
"........%%%%----%%%%%%%%%%%%%%%%....#%%%%%%%%%%%%%%%%%%#....%%%%%''%%%%%%%%%----%%%%........",
"........%%%%----%%%%%%%%%%%%%%%%....$%%%%%%%%%%%%%%%%%%$....%%%%%%%%%%%%%%%%----%%%%........",
"........%%%%----%%%%%%%%%%%%%%%%....%%%%%%%%&...#$%%%%%$....%%%%%%%%%%%%%%%%----%%%%........",
"........%%%%----%%%%%%%%%%%%%%%%....%%%%%%%%......#$%%%#....%%%%%%%%%%%%%%%%----%%%%........",
"........%%%%----%%%%%%%%,%%%%%%%....%%%%%%%%........&%$.....%%%%%%%%%%%%%%%%----%%%%........",
"........%%%%----%%%%%%%%%%%%%%%%....%%%%%%%%&........&#.....%%%%%%%%%%%%%%%%----%%%%........",
"........%%%%----%%%%%%%%%%%%%%%%....%%%%%%%%%%%%$#..........%%%%%%%%%%%%%%%%----%%%%........",
"........%%%%----%%%%%%%%%%%%%%%%....%%%%%%%%%%%%%%$#........%%%%%%%%%%%%%%%%----%%%%........",
"........%%%%----%%%%%%%%%%%%%%%%....%%%%%%%%%%%%%%%%&.......%%%%%%%%%%%%%%%%----%%%%........",
"........%%%%----%%%%%%%%%%%%%%%%....%%%%%%%%%%%%%%%%%&......%%%%%%%%%%%%%%%%----%%%%........",
"........%%%%----%%%%%%%%%%%%%%%%....%%%%%%%%&..&%%%%%%#.....%%%%%%%%%%%%%%%%----%%%%........",
"........%%%%----%%%%%%%%%%%%%%%%)...%%%%%%%%....%%%%%%$.....%%%%%%%%%%%%%%%%----%%%%........",
"........%%%%----%%%%%%%%%%%%%%%%....%%%%%%%%....%%%%%%%#....%%%%%%%%%%%%%%%%----%%%%........",
"........%%%%----%%%%%%%%%%%%%%%%....%%%%%%%%....%%%%%%%$....%%%%%%%%%%%%%%%%----%%%%........",
"........%%%%----%%%%%%%%%,,%%%%%....%%%%%%%%....%%%%%%%%....%%%%%%%%%%%%%%%%----%%%%........",
"........%%%%----%%%%%%%%,,,,%%%%....%%%%%%%%....%%%%%%%%....%%%%%%%%%%%%%%%%----%%%%........",
"........%%%%----%%%%%%%%,,,,%%%%....%%%%%%%%....%%%%%%%%....%%%%%%%%%%%%%%%%----%%%%........",
"........%%%%----%%%%%%%%%,,%%%%%....%%%%%%%%&..&%%%%%%%%....%%%%%%%%%%%%%%%%----%%%%........",
"........%%%%----%%%%%%%%%%%%%%%%....$%%%%%%%%%%%%%%%%%%$....%%%%%%%%%%%%%%%%----%%%%........",
"........%%%%----%%%%%%%%%%%%%%%%....#%%%%%%%%%%%%%%%%%%#....%%%%%%%%%%%%%%%%----%%%%........",
"........%%%%----%%%%%%%%%%%%%%%%.....$%%%%%%%%%%%%%%%%$.....%%%%%%%%%%%%%%%%----%%%%...+....",
"........%%%%----%%%%%%%%%%%%%%%%.....#%%%%%%%%%%%%%%%%#.....%%%%%%%%%%%%%%%%----%%%%........",
"........%%%%----%%%%%%%%%%%%%%%%#.....&%%%%%%%%%%%%%%&.....#%%%%%%%%%%%%%%%%----%%%%........",
"........%%%%----%%%%%%%%%%%%%%%%$......&%%%%%%%%%%%%&......$%%%%%%%%%%%%%%%%----%%%%........",
"........%%%%----%%%%%%%%%%%%%%%%%#......#$%%%%%%%%$#......#%%%%%%%%%%%%%%%%%----%%%%........",
"........%%%%----%%%%%%%%%%%%%%%%%$........#$%%%%$#........$%%%%%%%%%%%%%%%%%----%%%%........",
"........%%%%----%%%%%%%%%%%%%%%%%%&......................&%%%%%%%%%%%%%%%%%%----%%%%........",
"........%%%%----%%%%%%%%%%%%%%%%%%%&....................&%%%%%%%%%%%%%%%%%%%----%%%%........",
"........%%%%----%%%%%%%%%%%%%%%%%%%%$#................#$%%%%%%%%%%%%%%%%%%%%----%%%%........",
"........%%%%----%%%%%%%%%%%%%%%%%%%%%%$#............#$%%%%%%%%%%%%%%%%%%%%%%----%%%%........",
"........%%%%----%%%%%%%%%%%%%%%%%%%%%%%%%%%%%%%%%%%%%%%%%%%%%%%%%%%%%%%%%%%%=--=%%%%........",
"........%%%%----%%%%%%%%%%%%%%%%%%%%%%%%%%%%%%%%%%%%%%%%%%%%%%%%%%%%%%%%%%%%*--*%%%%........",
"........%%%%----%%%%%%%%%%%%%%%%%%%%%%%%%%%%%%%%%%%%%%%%%%%%%%%%%%%%%%%%%%%%%==%%%%%........",
"........%%%%----%%%%%%%%%%%%%%%%%%%%%%%%%%%%%%%%%%%%%%%%%%%%%%%%%%%%%%%%%%%%%**%%%%%........",
"........%%%%----%%%%%%%%%%%%%%%%%%%%%%%%%%%%%%%%%%%%%%%%%%%%%%%%%%%%%%%%%%%%%%%%%%%%........",
"........%%%%----%%%%%%%%%%%%%%%%%%%%%%%%%%%%%%%%%%%%%%%%%%%%%%%%%%%%%%%%%%%%%%%%%%'%........",
"........%%%%----%%%%%%%%%%%%%%%%%%%%%%%%%%%%%%%%%%%%%%%%%%%%%%%%%%%%%%%%%%%%%%%%%%%%........",
"........%%%%----%%%%%%%%%%%%%%%%%%%%%%%%%%%%%%%%%%%%%%%%%%%%%%%%%%%%%%%%%%%%%%%%%%%%........",
"........%%%%----%%%%%%%%%%%%%%%%%%%%%%%%%%%%%%%%%%%%%%%%%%%%%%%%%%%%%%%%%%%%%%%%%%%%........",
"........%%%%----%%%%%%%%%%%%%%%%%%%%%%%%%%%%%%%%%%%%%%%%%%%%%%%%%%%%%%%%%%%%%%%%%%%%........",
"........%%%%----%%%%%%%%%%%%%%%%%%%%%%%%%%%%%%%%%%%%%%%%%%%%%%%%%%%%%%%%%%%%%%%%%%%%........",
"........%%%%----%%%%%%%%%%%%%%%%%%%%%%%%%%%%%%%%%%%%%%%%%%%%%%%%%%%%%%%%%%%%%%%%%%%%.......@",
"........%%%%----%%%%%%%%%%%%%%%%%%%%%%%%%%%%%%%%%%%%%%%%%%%%%%%%&..............&%%%%......@@",
"........%%%%----%%%%%%%%%%%%%%%%%%%%%%%%%%%%%%%%%%%%%%%%%%%%%%%%................%%%%.....@@@",
"........%%%%----%%%%%%%%%%%%%%%%%%%%%%%%%%%%%%%%%%%%%%%%%%%%%%%%&..............&%%%%.....@@@",
"........%%%%----%%%%%%%%%%%%%%%%%%%%%%%%%%%%%%%%%%%%%%%%%%%%%%%%%&............&%%%%%......@@",
".......@%%%%----%%%%%%%%%%%%%%%%%%%%%%%%%%%%%%%%%%%%%%%%%%%%%%%%%%&..........&%%%%%%.......@",
"........%%%%----%%%%%%%%%%%%%''%%%%%%%%%%%%%%%%%%%%%%%%%%%%%%%%%%%%&........&%%%%%%%........",
"........%%%%----%%%%%%%%%%%%%''%%%%%%%%%%%%%%%%%%%%%%%%%%%%%%%%%%%%&........&%%%%%%%........",
"........%%%%----%%%%%%%%%%%%%%%%%%%%%%%%%%%%%%%%%%%%%%%%%%%%%%%%%%&..........&%%%%%%........",
"........%%%%----%%%%%%%%%%%%%%%%%%%%%%%%%%%%%%%%%%%%%%%%%%%%%%%%%$............$%>>%%........",
"........%%%%----%%%%%%%%%%%%%%%%%%%%%%%%%%%%%%%%%%%%%%%%%%%%%%%%%#............#%>>>%........",
"........%%%%----%%%%%%%%%%%%%%%%%%%%%%%%%%%%%%%%%%%%%%%%%%%%%%%%$..............$%>>%........",
"........%%%%----%%%%%%%%%%%%%%%%%%%%%%%%%%%%%%%%%%%%%%%%%%%%%%%%#..............#%%%%........",
"........%%%%----*%%%%%%%%%%%%%%%%%%%%%%%%%%%%%%%%%%%%%%%%%%%%%%%#..............#%%%%........",
"........%%%%----=%%%%%%%%%%%%%%%%%%%%%%%%%%%%%%%%%%%%%%%%%%%%%%%$..............$%%%%........",
"........%%%%-----*%%%%%%%%%%%%%%%%%%%%%%%%%%%%%%%%%%%%%%%%%%%%%%%#............#%%%%%........",
"........%%%%-----=%%%%%%%%%%%%%%%%%%%%%%%%%%%%%%%%%%%%%%%%%%%%%%%$............$%%%%%........",
"........%%%%=-----;%%%%%%%%%%%%%%%%%%%%%%%%%%%%%%%%%%%%%%%%%%%%%%%&..........&%%%%%%........",
"........%%%%*------;%%%%%%%%%%%%%%%%%%%%%%%%%%%%%%%%%%%%%%%%%%%%%%%&.......+&%%%%%%%........",
"........%%%%%=------=*%%%%%%%%%%%%%%%%%%%%%%%%%%%%%%%%%%%%%%%%%%%%%%$#....#$%%%%%%%%........",
"........%%%%%*--------=*%%%%%%%%%%%%%%%%%%%%%%%%%%%%%%%%%%%%%%%%%%%%%%$##$%%%%%%%%%%........",
"........$%%%%%;---------------------------------------------=*%%%%%%%%%%%%%%%%%%%%%$........",
"........#%%%%%%;----------------------------------------------=*%%%%%%%%%%%%%%%%%%%#........",
".........$%%%%%%*=--------------------------------------------=*%%%%%%%%%%%%%%%%%%$.........",
".........#%%%%%%%%*=----------------------------------------=*%%%%%%%%%%%%%%%%%%%%#.........",
"..........&%%%%%%%%%%%%%%%%%%%%%%%%%%%%%%%%%%%%%%%%%%%%%%%%%%%%%%%%%%%%%%%%%%%%%%&..........",
" ..........&%%%%%%%%%%%%%%%%%%%%%%%%%%%%%%%%%%%%%%%%%%%%%%%%%%%%%%%%%%%%%%%%%%%%&.......... ",
" ...........#$%%%%%%%%%%%%%%%%%%%%%%%%%%%%%%%%%%%%%%%%%%%%%%%%%%%%%%%%%%%%%%%%$#........... ",
"  ............#$%%%%%%%%%%%%%%%%%%%%%%%%%%%%%%%%%%%%%%%%%%%%%%%%%%%%%%%%%%%%$#............  ",
"  +......................................................................................+  ",
"   +....................................................................................+   ",
"    +..................................................................................+    ",
"     +................................................................................+     ",
"      +..............................................................................+      ",
"       +............................................................................+       ",
"         ..........................................................................         ",
"           ......................................................................           "};
