/* XPM */
static char * player2_xpm[] = {
"282 59 2 1",
" 	c None",
".	c #FFFFFF",
"                                                                                                                                                                                                                                                                                          ",
"                                                                                                                                                                                                                                                                                          ",
"                                                                                                                                                                                                                                                                                          ",
"                                                                                                                                                                                                                                                                                          ",
"                                                                                                                                                                                                                                                                                          ",
"                                                                                                                                                                                                                                                                                          ",
"                                                                                                                                                                                                                                                                                          ",
"                                                                                                                                                                                                                                                                                          ",
"                                                                                                                                                                                                                                                                                          ",
"                                                                                                                                                                                                                                                                                          ",
"                                                                                                                                                                                                                                                                                          ",
"                                                                                                                                                                                                                                                                                          ",
"                                                                                                                                                                                                                                                                                          ",
"                                                                           ..............        .....                                                                                    ......                                                                                          ",
"                                                                           ................      .....                                                                                  ..........                                                                                        ",
"                                                                           .................     .....                                                                                 ............                                                                                       ",
"                                                                           ..................    .....                                                                                ..............                                                                                      ",
"                                                                           ......      ......    .....                                                                                .....    .....                                                                                      ",
"                                                                           .....        ......   .....                                                                                ....      .....                                                                                     ",
"                                                                           .....         .....   .....        ......      ......       .....      ......        .....   ..           .....      .....                                                                                     ",
"                                                                           .....         .....   .....      ..........     .....       ....     ..........      ..... ....           .....      .....     .....                                                                           ",
"                                                                           .....         .....   .....     ............    .....      .....    ............     ..........            ....      .....     .....                                                                           ",
"                                                                           .....        ......   .....    ..............    ....      .....   ..............    ..........                      .....     .....                                                                           ",
"                                                                           .....       ......    .....    ....     .....    .....     ....    .....    .....    ..........                     .....      .....                                                                           ",
"                                                                           ..................    .....   .....      ....    .....    .....   .....      .....   ......                         .....      .....                                                                           ",
"                                                                           .................     .....             .....     ....    .....   .....      .....   .....                         .....                                                                                       ",
"                                                                           ................      .....         .........     .....   ....    ................   .....                       ......                                                                                        ",
"                                                                           ...............       .....     .............     .....   ....    ................   .....                      ......                                                                                         ",
"                                                                           ......                .....    .......   ....      ....  .....    ................   .....                     ......                                                                                          ",
"                                                                           .....                 .....   .....      ....      ....  ....     ....               .....                   ......                                                                                            ",
"                                                                           .....                 .....   .....      ....      ..... ....     ....               .....                  ......                                                                                             ",
"                                                                           .....                 .....   .....     .....       ........      .....       ....   .....                  .....                                                                                              ",
"                                                                           .....                 .....   .....    ......       ........       .....     .....   .....                 .....               .....                                                                           ",
"                                                                           .....                 .....   ...............       ........       ..............    .....                 ...............     .....                                                                           ",
"                                                                           .....                 .....    ..............        ......         ............     .....                ................     .....                                                                           ",
"                                                                           .....                 .....    ......... .....       ......          ..........      .....                ................     .....                                                                           ",
"                                                                           .....                 .....      .....   .....       ......            ......        .....                ................     .....                                                                           ",
"                                                                                                                                 ....                                                                                                                                                     ",
"                                                                                                                                 ....                                                                                                                                                     ",
"                                                                                                                                .....                                                                                                                                                     ",
"                                                                                                                                ....                                                                                                                                                      ",
"                                                                                                                             .......                                                                                                                                                      ",
"                                                                                                                             ......                                                                                                                                                       ",
"                                                                                                                             .....                                                                                                                                                        ",
"                                                                                                                                                                                                                                                                                          ",
"                                                                                                                                                                                                                                                                                          ",
"                                                                                                                                                                                                                                                                                          ",
"                                                                                                                                                                                                                                                                                          ",
"                                                                                                                                                                                                                                                                                          ",
"                                                                                                                                                                                                                                                                                          ",
"                                                                                                                                                                                                                                                                                          ",
"                                                                                                                                                                                                                                                                                          ",
"                                                                                                                                                                                                                                                                                          ",
"                                                                                                                                                                                                                                                                                          ",
"                                                                                                                                                                                                                                                                                          ",
"                                                                                                                                                                                                                                                                                          ",
"                                                                                                                                                                                                                                                                                          ",
"                                                                                                                                                                                                                                                                                          ",
"                                                                                                                                                                                                                                                                                          "};
