/* XPM */
static char * player1_xpm[] = {
"282 59 2 1",
" 	c None",
".	c #FFFFFF",
"                                                                                                                                                                                                                                                                                          ",
"                                                                                                                                                                                                                                                                                          ",
"                                                                                                                                                                                                                                                                                          ",
"                                                                                                                                                                                                                                                                                          ",
"                                                                                                                                                                                                                                                                                          ",
"                                                                                                                                                                                                                                                                                          ",
"                                                                                                                                                                                                                                                                                          ",
"                                                                                                                                                                                                                                                                                          ",
"                                                                                                                                                                                                                                                                                          ",
"                                                                                                                                                                                                                                                                                          ",
"                                                                                                                                                                                                                                                                                          ",
"                                                                                                                                                                                                                                                                                          ",
"                                                                                                                                                                                                                                                                                          ",
"                                                                           ..............        .....                                                                                                                                                                                    ",
"                                                                           ................      .....                                                                                       ...                                                                                          ",
"                                                                           .................     .....                                                                                      ....                                                                                          ",
"                                                                           ..................    .....                                                                                     .....                                                                                          ",
"                                                                           ......      ......    .....                                                                                   .......                                                                                          ",
"                                                                           .....        ......   .....                                                                                ..........                                                                                          ",
"                                                                           .....         .....   .....        ......      ......       .....      ......        .....   ..            ..........                                                                                          ",
"                                                                           .....         .....   .....      ..........     .....       ....     ..........      ..... ....            ..........          .....                                                                           ",
"                                                                           .....         .....   .....     ............    .....      .....    ............     ..........                  ....          .....                                                                           ",
"                                                                           .....        ......   .....    ..............    ....      .....   ..............    ..........                  ....          .....                                                                           ",
"                                                                           .....       ......    .....    ....     .....    .....     ....    .....    .....    ..........                  ....          .....                                                                           ",
"                                                                           ..................    .....   .....      ....    .....    .....   .....      .....   ......                      ....          .....                                                                           ",
"                                                                           .................     .....             .....     ....    .....   .....      .....   .....                       ....                                                                                          ",
"                                                                           ................      .....         .........     .....   ....    ................   .....                       ....                                                                                          ",
"                                                                           ...............       .....     .............     .....   ....    ................   .....                       ....                                                                                          ",
"                                                                           ......                .....    .......   ....      ....  .....    ................   .....                       ....                                                                                          ",
"                                                                           .....                 .....   .....      ....      ....  ....     ....               .....                       ....                                                                                          ",
"                                                                           .....                 .....   .....      ....      ..... ....     ....               .....                       ....                                                                                          ",
"                                                                           .....                 .....   .....     .....       ........      .....       ....   .....                       ....                                                                                          ",
"                                                                           .....                 .....   .....    ......       ........       .....     .....   .....                       ....          .....                                                                           ",
"                                                                           .....                 .....   ...............       ........       ..............    .....                       ....          .....                                                                           ",
"                                                                           .....                 .....    ..............        ......         ............     .....                       ....          .....                                                                           ",
"                                                                           .....                 .....    ......... .....       ......          ..........      .....                       ....          .....                                                                           ",
"                                                                           .....                 .....      .....   .....       ......            ......        .....                       ....          .....                                                                           ",
"                                                                                                                                 ....                                                                                                                                                     ",
"                                                                                                                                 ....                                                                                                                                                     ",
"                                                                                                                                .....                                                                                                                                                     ",
"                                                                                                                                ....                                                                                                                                                      ",
"                                                                                                                             .......                                                                                                                                                      ",
"                                                                                                                             ......                                                                                                                                                       ",
"                                                                                                                             .....                                                                                                                                                        ",
"                                                                                                                                                                                                                                                                                          ",
"                                                                                                                                                                                                                                                                                          ",
"                                                                                                                                                                                                                                                                                          ",
"                                                                                                                                                                                                                                                                                          ",
"                                                                                                                                                                                                                                                                                          ",
"                                                                                                                                                                                                                                                                                          ",
"                                                                                                                                                                                                                                                                                          ",
"                                                                                                                                                                                                                                                                                          ",
"                                                                                                                                                                                                                                                                                          ",
"                                                                                                                                                                                                                                                                                          ",
"                                                                                                                                                                                                                                                                                          ",
"                                                                                                                                                                                                                                                                                          ",
"                                                                                                                                                                                                                                                                                          ",
"                                                                                                                                                                                                                                                                                          ",
"                                                                                                                                                                                                                                                                                          "};
