/* XPM */
static char * quit_xpm[] = {
"92 55 113 2",
"  	c #000000",
". 	c #7F7F7F",
"+ 	c #BFBFBF",
"@ 	c #E4E4E4",
"# 	c #F1F1F1",
"$ 	c #FBFBFB",
"% 	c #F5F5F5",
"& 	c #EBEBEB",
"* 	c #D0D0D0",
"= 	c #9C9C9C",
"- 	c #323232",
"; 	c #2E2E2E",
"> 	c #FFFFFF",
", 	c #B8B8B8",
"' 	c #767676",
") 	c #DDDDDD",
"! 	c #A6A6A6",
"~ 	c #696969",
"{ 	c #969696",
"] 	c #161616",
"^ 	c #9D9D9D",
"/ 	c #FAFAFA",
"( 	c #FEFEFE",
"_ 	c #C8C8C8",
": 	c #BABABA",
"< 	c #C3C3C3",
"[ 	c #D7D7D7",
"} 	c #F8F8F8",
"| 	c #B2B2B2",
"1 	c #989898",
"2 	c #D2D2D2",
"3 	c #616161",
"4 	c #2A2A2A",
"5 	c #B0B0B0",
"6 	c #F7F7F7",
"7 	c #D5D5D5",
"8 	c #0D0D0D",
"9 	c #6D6D6D",
"0 	c #4D4D4D",
"a 	c #636363",
"b 	c #ACACAC",
"c 	c #6F6F6F",
"d 	c #AEAEAE",
"e 	c #CDCDCD",
"f 	c #8D8D8D",
"g 	c #F6F6F6",
"h 	c #404040",
"i 	c #565656",
"j 	c #FCFCFC",
"k 	c #F9F9F9",
"l 	c #5B5B5B",
"m 	c #454545",
"n 	c #C9C9C9",
"o 	c #CCCCCC",
"p 	c #A4A4A4",
"q 	c #BEBEBE",
"r 	c #676767",
"s 	c #DFDFDF",
"t 	c #CFCFCF",
"u 	c #828282",
"v 	c #ECECEC",
"w 	c #3A3A3A",
"x 	c #B7B7B7",
"y 	c #E1E1E1",
"z 	c #353535",
"A 	c #C6C6C6",
"B 	c #7D7D7D",
"C 	c #7C7C7C",
"D 	c #EAEAEA",
"E 	c #5D5D5D",
"F 	c #DEDEDE",
"G 	c #595959",
"H 	c #222222",
"I 	c #C4C4C4",
"J 	c #585858",
"K 	c #C1C1C1",
"L 	c #545454",
"M 	c #787878",
"N 	c #F4F4F4",
"O 	c #8C8C8C",
"P 	c #AAAAAA",
"Q 	c #9F9F9F",
"R 	c #F2F2F2",
"S 	c #F0F0F0",
"T 	c #A5A5A5",
"U 	c #424242",
"V 	c #CECECE",
"W 	c #808080",
"X 	c #CBCBCB",
"Y 	c #474747",
"Z 	c #9E9E9E",
"` 	c #FDFDFD",
" .	c #D4D4D4",
"..	c #383838",
"+.	c #EDEDED",
"@.	c #A7A7A7",
"#.	c #848484",
"$.	c #A0A0A0",
"%.	c #EEEEEE",
"&.	c #E8E8E8",
"*.	c #4F4F4F",
"=.	c #E7E7E7",
"-.	c #C0C0C0",
";.	c #E5E5E5",
">.	c #F3F3F3",
",.	c #959595",
"'.	c #3D3D3D",
").	c #262626",
"!.	c #E6E6E6",
"~.	c #BCBCBC",
"{.	c #838383",
"].	c #646464",
"^.	c #535353",
"                                                                                                                                                                                        ",
"                                                                                                                                                                                        ",
"                                                                                                                                                                                        ",
"                                                                                                                                                                                        ",
"                                                                                                                                                                                        ",
"                                                                                                                                                                                        ",
"                                                                                                                                                                                        ",
"                                                                                                                                                                                        ",
"                                                                                                                                                                                        ",
"                                                                                                                                                                                        ",
"                                                                                                                                                                                        ",
"                                                                                                                                                                                        ",
"                                                                                                                                                                                        ",
"                                                  . + @ # $ % & * = -                                                   ; > > ,                                                         ",
"                                              ' ) > > > > > > > > > # !                                                 ; > > ,         ~ { { ]                                         ",
"                                            ^ / > > ( @ _ : < [ } > > > * ;                                             ; > > ,         | > > ;                                         ",
"                                          1 ( > > 2 3           4 5 6 > > 7                                             8 9 9 0         | > > ;                                         ",
"                                        a } > > b                   c # > > d                                                           | > > ;                                         ",
"                                        e > > 2                       f > > g h                                                         | > > ;                                         ",
"                                      i j > k l                         [ > > |       m > > 5             ; > > |         > > ,     n > > > > > > o                                     ",
"                                      p > > q                           r > > s       m > > 5             ; > > |         > > ,     n > > > > > > o                                     ",
"                                      t > > u                             v > $ ;     m > > 5             ; > > |         > > ,     ; w x > > 0 w ;                                     ",
"                                      y > > z                             2 > > 3     m > > 5             ; > > |         > > ,         | > > ;                                         ",
"                                      & > /                               A > > B     m > > 5             ; > > |         > > ,         | > > ;                                         ",
"                                      & > k                               A > > C     m > > 5             ; > > |         > > ,         | > > ;                                         ",
"                                      y > > z                             2 > > 3     m > > 5             ; > > |         > > ,         | > > ;                                         ",
"                                      t > > u                             D > / ;     m > > 5             ; > > |         > > ,         | > > ;                                         ",
"                                      p > > q                           E > > F       m > > 5             ; > > |         > > ,         | > > ;                                         ",
"                                      i j > k G               8 p H     I > > d       m > > 5             J > > |         > > ,         | > > ;                                         ",
"                                        e > > *               K > y L M / > N z       m > > 5             O > > |         > > ,         | > > ;                                         ",
"                                        a } > ( P             Q / > R S > > T         U > > <             2 > > |         > > ,         | > > ;                                         ",
"                                          1 ( > > V G           W / > > > X             % > R Y         Z > > > |         > > ,         | > > w                                         ",
"                                            ^ / > > ` y I x K 7 } > > > >  ...          2 > > +.@.#.$.* > > ` > |         > > ,         5 > > | B c                                     ",
"                                              ' F > > > > > > > > > %. .> > &.3         *.S > > > > > > > V =.> |         > > ,         #.> > > > o                                     ",
"                                                  W -.;.R $ >.@ 2 ,.]   T $ > F           '.: ;.6 > > ` K ).!.> |         > > ,           b %.$ N ~.                                    ",
"                                                                          {.& ].                  ^.C '.                                                                                ",
"                                                                            ]                                                                                                           ",
"                                                                                                                                                                                        ",
"                                                                                                                                                                                        ",
"                                                                                                                                                                                        ",
"                                                                                                                                                                                        ",
"                                                                                                                                                                                        ",
"                                                                                                                                                                                        ",
"                                                                                                                                                                                        ",
"                                                                                                                                                                                        ",
"                                                                                                                                                                                        ",
"                                                                                                                                                                                        ",
"                                                                                                                                                                                        ",
"                                                                                                                                                                                        ",
"                                                                                                                                                                                        ",
"                                                                                                                                                                                        ",
"                                                                                                                                                                                        ",
"                                                                                                                                                                                        ",
"                                                                                                                                                                                        ",
"                                                                                                                                                                                        "};
