/* XPM */
static char *back_anim4_xpm[] = {
    "92 136 36 1",
    " 	c None",
    ".	c #150000",
    "+	c #9E9C98",
    "@	c #FFFEF8",
    "#	c #A6A4A0",
    "$	c #C4C2BD",
    "%	c #C0BEBA",
    "&	c #C1C0BB",
    "*	c #ECEAE4",
    "=	c #CAC8C4",
    "-	c #DBD9D4",
    ";	c #B3B1AD",
    ">	c #CECCC7",
    ",	c #AAA7A4",
    "'	c #BDBBB6",
    ")	c #B1AFAB",
    "!	c #A19F9B",
    "~	c #979491",
    "{	c #9E9B97",
    "]	c #CFCDC8",
    "^	c #8F8D8A",
    "/	c #C9C7C3",
    "(	c #8E8C89",
    "_	c #9E9B98",
    ":	c #BEBCB8",
    "<	c #9A9894",
    "[	c #C8C6C1",
    "}	c #B6B5B0",
    "|	c #9A9793",
    "1	c #C6C4BF",
    "2	c #918E8B",
    "3	c #ADACA8",
    "4	c #ADAAA6",
    "5	c #9F9D99",
    "6	c #BDBCB8",
    "7	c #B6B5B1",
    "                                            ....                                            ",
    "                                            ....                                            ",
    "                                            ....                                            ",
    "                                            ....                                            ",
    "                                            ....                                            ",
    "                                            ....                                            ",
    "                                            ....                                            ",
    "                                            ....                                            ",
    "                                            +@@+                                            ",
    "                                            #@@#                                            ",
    "                                            $@@$                                            ",
    "                                            %@@%                                            ",
    "                                            &@@&                                            ",
    "                                            &@@&                                            ",
    "                                            &@@&                                            ",
    "                                            &@@&                                            ",
    "                                            &*=&                                            ",
    "                                            &-;&                                            ",
    "                                            &>,&                                            ",
    "                                            &')&                                            ",
    "                                            &)'!                                            ",
    "                                            &,>~                                            ",
    "                                            &{]^                                            ",
    "                                            &+/(                                            ",
    "                                            &_>(                                            ",
    "                                            :<[(                                            ",
    "                                            }|12                                            ",
    "                                            34&5                                            ",
    "                                            5&43                                            ",
    "                                            21|}                                            ",
    "                                            ([<:                                            ",
    "                                            (>_&                                            ",
    "                                            (/+&                                            ",
    "                                            ^]{&                                            ",
    "                                            ~>,&                                            ",
    "                                            !')&                                            ",
    "                                            &)'!                                            ",
    "                                            &,>~                                            ",
    "                                            &{]^                                            ",
    "                                            &+/(                                            ",
    "                                            &_>(                                            ",
    "                                            :<[(                                            ",
    "                                            }|12                                            ",
    "                                            34&5                                            ",
    "                                            5&43                                            ",
    "                                            21|}                                            ",
    "                                            ([<:                                            ",
    "                                            (>_&                                            ",
    "                                            (/+&                                            ",
    "                                            ^]{&                                            ",
    "                                            ~>,&                                            ",
    "                                            !')&                                            ",
    "                                            &)'!                                            ",
    "                                            &,>~                                            ",
    "                                            &{]^                                            ",
    "                                            &+/(                                            ",
    "                                            &_>(                                            ",
    "                                            :<[(                                            ",
    "                                            }|12                                            ",
    "                                            34&5                                            ",
    "                                            5&43                                            ",
    "                                            21|}                                            ",
    "                                            ([<6                                            ",
    "                                            (>_&                                            ",
    "                                            (/+&                                            ",
    "                                            ^]{&                                            ",
    "                                            ~>,&                                            ",
    "                                            !')&                                            ",
    "                                            &)'!                                            ",
    "                                            &,>~                                            ",
    "                                            &{]^                                            ",
    "                                            &+/(                                            ",
    "                                            &_>(                                            ",
    "                                            :<[(                                            ",
    "                                            }|12                                            ",
    "                                            34&5                                            ",
    "                                            5&43                                            ",
    "                                            21|}                                            ",
    "                                            ([<:                                            ",
    "                                            (>_&                                            ",
    "                                            (/+&                                            ",
    "                                            ^]{&                                            ",
    "                                            ~>,&                                            ",
    "                                            !')&                                            ",
    "                                            &)'!                                            ",
    "                                            &,>~                                            ",
    "                                            &{]^                                            ",
    "                                            &+/(                                            ",
    "                                            &_>(                                            ",
    "                                            :<[(                                            ",
    "                                            }|12                                            ",
    "                                            34&5                                            ",
    "                                            5&43                                            ",
    "                                            21|}                                            ",
    "                                            ([<:                                            ",
    "                                            (>_&                                            ",
    "                                            (/+&                                            ",
    "                                            ^]{&                                            ",
    "                                            ~>,&                                            ",
    "                                            !')&                                            ",
    "                                            &)'!                                            ",
    "                                            &,>~                                            ",
    "                                            &{]^                                            ",
    "                                            &+/(                                            ",
    "                                            &_>(                                            ",
    "                                            :<[(                                            ",
    "                                            }|12                                            ",
    "                                            34&5                                            ",
    "                                            5&43                                            ",
    "                                            21|7                                            ",
    "                                            ([<:                                            ",
    "                                            (>_&                                            ",
    "                                            (/+&                                            ",
    "                                            ^]{&                                            ",
    "                                            ~>,&                                            ",
    "                                            !')&                                            ",
    "                                            &)'&                                            ",
    "                                            &,>&                                            ",
    "                                            &;-&                                            ",
    "                                            &=*&                                            ",
    "                                            &@@&                                            ",
    "                                            &@@&                                            ",
    "                                            &@@&                                            ",
    "                                            &@@&                                            ",
    "                                            %@@%                                            ",
    "                                            $@@$                                            ",
    "                                            #@@#                                            ",
    "                                            +@@+                                            ",
    "                                            ....                                            ",
    "                                            ....                                            ",
    "                                            ....                                            ",
    "                                            ....                                            ",
    "                                            ....                                            ",
    "                                            ....                                            ",
    "                                            ....                                            ",
    "                                            ....                                            "};
