/* XPM */
static char * number1_xpm[] = {
"92 136 21 1",
" 	c None",
".	c #150000",
"+	c #140000",
"@	c #4F3F3E",
"#	c #C4BEBA",
"$	c #FFFEF8",
"%	c #8A7F7C",
"&	c #FAF9F1",
"*	c #F0EFE4",
"=	c #ECEADE",
"-	c #F5F4EB",
";	c #C5BEBA",
">	c #FFFEF9",
",	c #150001",
"'	c #ECEADF",
")	c #7B6E6C",
"!	c #988E8B",
"~	c #150100",
"{	c #FEFEF8",
"]	c #FFFFF8",
"^	c #897F7C",
"           .......++++++++.......................................................           ",
"         ..........++++++..........................................................         ",
"       +............++++............................................................+       ",
"      +..............++..............................................................+      ",
"     +................................................................................+     ",
"    +..................................................................................+    ",
"   +....................................................................................+   ",
"  +......................................................................................+  ",
"  ............@#$$$$$$$$$$$$$$$$$$$$$$$$$$$$$$$$$$$$$$$$$$$$$$$$$$$$$$$$$$$$#@............  ",
" ...........@#$$$$$$$$$$$$$$$$$$$$$$$$$$$$$$$$$$$$$$$$$$$$$$$$$$$$$$$$$$$$$$$$#@........... ",
" ..........%$$$$$$$$$$$$$$$$$$$$$$$$$$$$$$$$$$$$$$$$$$$$$$$$$$$$$$$$$$$$$$$$$$$$%.......... ",
"..........%$$$$$$$$$$$$$$$$$$$$$$$$$$$$$$$$$$$$$$$$$$$$$$$$$$$$$$$$$$$$$$$$$$$$$$%..........",
".........@$$$$$$$$$$$$$$$$$$$$&*========================================*&$$$$$$$$@.........",
".........#$$$$$$$$$$$$$$$$$$&*============================================*&$$$$$$#.........",
"........@$$$$$$$$$$$$$$$$$$$&*==============================================-$$$$$$@........",
"........#$$$$$$$$$$$$$$$$$$$$$&*=============================================-$$$$$#........",
"........$$$$$$$$$$#@@#$$$$$$$$$$$$$$$$$$$$$$$$$$$$$$$$$$$$$$$$$$$$$$&*========&$$$$$........",
"........$$$$$$$$#@....@;$$$$$$$$$$$$$$$$$$$$$$$$$$$$$$$$$$$$$$$$$$$$$$&*======*>$$$$........",
"........$$$$$$$%......,.%$$$$$$$$$$$$$$$$$$$$$$$$$$$$$$$$$$$$$$$$$$$$$$$-======&$$$$........",
"........$$$$$$%..........%$$$$$$$$$$$$$$$$$$$$$$$$$$$$$$$$$$$$$$$$$$$$$$$-=====*$$$$........",
"........$$$$$#............#$$$$$$$$$$$$$$$$$$$$$$$$$$$$$$$$$$$$$$$$$$$$$$$*=====$$$$........",
"........$$$$$@............@$$$$$$$$$$$$$$$$$$$$$$$$$$$$$$$$$$$$$$$$$$$$$$$&=====$$$$........",
"........$$$$#..............#$$$$$$$$$$$$$$$$$$$$$$$$$$$$$$$$$$$$$$$$$$$$$$$*====$$$$........",
"........$$$$@..............@$$$$$$$$$$$$$$$$$$$$$$$$$$$$$$$$$$$$$$$$$$$$$$$&'=='$$$$........",
"........$$$$@..............@$$$$$$$$$$$$$$$$$$$$$$$$$$$$$$$$$$$$$$$$$$$$$$$$''''$$$$........",
"........$$$$#..............#$$$$$$$$$$$$$$$$$$$$$$$$$$$$$$$$$$$$$$$$$$$$$$$$''''$$$$........",
"........$$$$$@............@$$$$$$$$$$$$$$$$$$$$$$$$$$$$$$$$$$$$$$$$$$$$$$$$$''''$$$$........",
"........$$$$$#............#$$$$$$$$$$$$$$$$$$$$$$$$$$$$$$$$$$$$$$$$$$$$$$$$$''''$$$$........",
"........$$$$$$%..........%$$$$$$$$$$$$$$$$$$$$$$$$$$$$$$$$$$$$$$$$$$$$$$$$$$'=='$$$$........",
"........$$$$$$$%........%$$$$$$$$$$$$$$$$$$$$$$$$$$$$$$$$$$$$$$$$$$$$$$$$$$$====$$$$........",
"........$$$$$$$%........%$$$$$$$$$$$$$$$$$$$$$$$$$$$$$$$$$$$$$$$$$$$$$$$$$$$====$$$$........",
"........$$$$$$%..........%$$$$$$$$$$$$$$$$$$$$$$$$$$$$$$$$$$$$$$$$$$$$$$$$$$====$$$$........",
"........$$$$$%............%$$$$$$$$$$$$$$$$$$$$$$$$$$$$$$$$$$$$$$$$$$$$$$$$$====$$$$........",
"........$$$$%..............%$$$$$$$$$$$$$$$$$$$$$$$$$$$$$$$$$$$$$$$$$$$$$$$$====$$$$........",
"........$$$$................$$$$$$$$$$$$$$$$$$$$$$$$$$$$$$$$$$$$$$$$$$$$$$$$====$$$$........",
"........$$$$%..............%$$$$$$$$$$$$$$$$$$$$$$$$$$$$$$$$$$$$$$$$$$$$$$$$====$$$$........",
"........$$$$$$$$$$$$$$$$$$$$$$$$$$$$$$$$$$$$$$$$$$$$$$$$$$$$$$$$$$$$$$$$$$$$====$$$$........",
"........$$$$$$$$$$$$$$$$$$$$$$$$$$$$$$$$$$$$$$$$$$$$$$$$$$$$$$$$$$$$$$$$$$$$====$$$$........",
"........$$$$$$$$$$$$$$$$$$$$$$$$$$$$$$$$$$$$$$$$$$$$$$$$$$$$$$$$$$$$$$$$$$$$====$$$$........",
"........$$$$$$$$$$$$$$$$$$$$$$$$$$$$$$$$$$$$$$$$$$$$$$$$$$$$$$$$$$$$$$$$$$$$====$$$$........",
"........$$$$$$$$$$$$$$$$$$$$$$$$$$$$$$$$$$$$$$$$$$$$$$$$$$$$$$$$$$$$$$$$$$$$====$$$$........",
"........$$$$$$$$$$$$$$$$$$$$$$$$$$$$$$$$$$$$$$$$$$$$$$$$$$$$$$$$$$$$$$$$$$$$====$$$$........",
"........$$$$$$$$$$$$$$$$$$$$$$$$$$$$$$$$$$$$$$$$$$$$$$$$$$$$$$$$$$$$$$$$$$$$====$$$$........",
"........$$$$$$$$$$$$$$$$$$$$$$$$$$$$$$$$$$$$$$$$$$$$$$$$$$$$$$$$$$$$$$$$$$$$====$$$$........",
"........$$$$$&&$$$$$$$$$$$$$$$$$$$$$$$$$$$$$$$$$$$$$$$$$$$$$$$$$$$$$$$$$$$$$====$$$$........",
"........$$$$$**$$$$$$$$$$$$$$$$$$$$$$$$$$$$$$$$$$$$$$$$$$$$$$$$$$$$$$$$$$$$$====$$$$........",
"........$$$$&==&$$$$$$$$$$$$$$$$$$$$$$$$$$$$$$$$$$$$$$$$$$$$$$$$$$$$$$$$$$$$====$$$$........",
"........$$$$*==*$$$$$$$$$$$$$$$$$$$$$$$$$$$$$$$$$$$$$$$$$$$$$$$$$$$$$$$$$$$$====$$$$........",
"........$$$$====$$$$$$$$$$$$$$$$$$#@....................@#$$$$$$$$$$$$$$$$$$====$$$$........",
"........$$$$====$$$$$$$$$$$$$$$$#@........................@#$$$$$$$$$$$$$$$$====$$$$........",
"........$$$$====$$$$$$$$$$$$$$$%............................%$$$$$$$$$$$$$$$====$$$$........",
"........$$$$====$$$$$$$$$$$$$$%..............................%$$$$$$$$$$$$$$====$$$$........",
"........$$$$====$$$$$$$$$$$$$#........@#$$$$$$$$$$$$#@........#$$$$$$$$$$$$$====$$$$........",
"........$$$$====$$$$$$$$$$$$$@......@#$$$$$$$$$$$$$$$$#@......@$$$$$$$$$$$$$====$$$$........",
"........$$$$====$$$$$$$$$$$$#......%$$$$$$$$$$$$$$$$$$$$%......#$$$$$$$$$$$$====$$$$........",
"........$$$$====$$$$$$$$$$$$@.....%$$$$$$$$$$$$$$$$$$$$$$%.....@$$$$$$$$$$$$====$$$$........",
"........$$$$====$$$$$$$$$$$$.....@$$$$$$$$$$$$$$$$$$$$$$$$@.....$$$$$$$$$$$$====$$$$........",
"........$$$$====$$$$$$$$$$$$.....#$$$$$$$$$$$$$$$$$$$$$$$$#.....$$$$$$$$$$$$====$$$$........",
"........$$$$====$$$$$$$$$$$$....@$$$$$$$$$$$$$$$$$$$$$$$$$$@....$$$$$$$$$$$$====$$$$........",
"........$$$$====$$$$$$$$$$$$....#$$$$$$$$$$$$$$$$$$$$$$$$$$#....$$$$$$$$$$$$====$$$$........",
"........$$$$====$$$$$$$$$$$$....$$$$$$$$$$#@....@#$$$$$$$$$$....$$$$$$$$$$$$====$$$$........",
"........$$$$====$$$$$$$$$$$$....$$$$$$$$$)........)$$$$$$$$$....$$$$$$$$$$$$====$$$$........",
"........$$$$====$$$$$$$$$$$$....$$$$$$$$#..........#$$$$$$$$....$$$$$$$$$$$$====$$$$........",
"........$$$$====$$$$$$$$$$$$....$$$$$$$$@..........@$$$$$$$$....$$$$$$$$$$$$====$$$$.......,",
"........$$$$====$$$$$$$$$$$$....$$$$$$$$............$$$$$$$$....$$$$$$$$$$$$====$$$$......,,",
"........$$$$====$$$$$$$$$$$$....$$$$$$$$............$$$$$$$$....$$$$$$$$$$$$====$$$$.....,,,",
"........$$$$====$$$$$$$$$$$$....$$$$$$$$............$$$$$$$$....$$$$$$$$$$$$====$$$$.....,,,",
"........$$$$====$$$$$$$$$$$$....$$$$$$$$............$$$$$$$$....$$$$$$$$$$$$====$$$$......,,",
"........$$$$====$$$$$$$$$$$$....$$$$$$$$@..........@$$$$$$$$....$$$$$$$$$$$$====$$$$.......,",
"........$$$$====$$$$$$$$$$$$....$$$$$$$$#..........#$$$$$$$$....$$$$$$$$$$$$====$$$$........",
"........$$$$====$$$$$$$$$$$$....$$$$$$$$$)........)$$$$$$$$$....$$$$$$$$$$$$====$$$$........",
"........$$$$====$$$$$$$$$$$$....$$$$$$$$$$#@....@#$$$$$$$$$$....$$$$$$$$$$$$====$$$$........",
"........$$$$====$$$$$$$$$$$$....$$$$$$$$$$$$$$$$$$$$$$$$$$$$....$$$$$$$$$$$$====$$$$........",
"........$$$$====$$$$$$$$$$$$....$$$$$$$$$$$$$$$$$$$$$$$$$$$$....$$$$$$$$$$$$====$$$$........",
"........$$$$====$$$$$$$$$$$$....$$$$$$$$$$$$$$$$$$$$$$$$$$$$....$$$$$$$$$$$$====$$$$........",
"........$$$$====$$$$$$$$$$$$....$$$$$$$$$$$$$$$$$$$$$$$$$$$$....$$$$$$$$$$$$====$$$$........",
"........$$$$====$$$$$$$$$$$$....$$$$$$$$$$$$$$$$$$$$$$$$$$$$....$$$$$$$$$$$$====$$$$........",
"........$$$$====$$$$$$$$$$$$....$$$$$$$$$$$$$$$$$$$$$$$$$$$$....$$$$$$$$$$$$====$$$$........",
"........$$$$====$$$$$$$$$$$$....$$$$$$$$$$$$$$$$$$$$$$$$$$$$....$$$$$$$$$$$$====$$$$........",
"........$$$$====$$$$$$$$$$$$....$$$$$$$$$$$$$$$$$$$$$$$$$$$$....$$$$$$$$$$$$====$$$$........",
"........$$$$====$$$$$$$$$$$$....#$$$$$$$$$#@....@#$$$$$$$$$#....$$$$$$$$$$$$====$$$$........",
"........$$$$====$$$$$$$$$$$$....@$$$$$$$#@........@#$$$$$$$@....$$$$$$$$$$$$====$$$$........",
"........$$$$====$$$$$$$$$$$$.....!$$$$#@............@#$$$$!.....$$$$$$$$$$$$====$$$$........",
"........$$$$====$$$$$$$$$$$$......@##@................@##@......$$$$$$$$$$$$====$$$$........",
"........$$$$====$$$$$$$$$$$$@..................................@$$$$$$$$$$$$====$$$$........",
"........$$$$====$$$$$$$$$$$$#..................................#$$$$$$$$$$$$====$$$$........",
"........$$$$====$$$$$$$$$$$$$)................................)$$$$$$$$$$$$$====$$$$........",
"........$$$$====$$$$$$$$$$$$$$#@............................@#$$$$$$$$$$$$$$====$$$$~.......",
"........$$$$====$$$$$$$$$$$$$$$$$$$$$$$$$$$$$$$$$$$$$$$$$$$$$$$$$$$$$$$$$$$$*==*$$$$~~......",
"........$$$$====$$$$$$$$$$$$$$$$$$$$$$$$$$$$$$$$$$$$$$$$$$$$$$$$$$$$$$$$$$$$&==&$$$$~~~.....",
"........$$$$====$$$$$$$$$$$$$$$$$$$$$$$$$$$$$$$$$$$$$$$$$$$$$$$$$$$$$$$$$$$$$**$$$$$~~~.....",
"........$$$$====$$$$$$$$$$$$$$$$$$$$$$$$$$$$$$$$$$$$$$$$$$$$$$$$$$$$$$$$$$$$$&&$$$$$~~......",
"........$$$$====$$$$$$$$$$$$$$$$$$$$$$$$$$$$$$$$$$$$$$$$$$$$$$$$$$$$$$$$$$$$$$$$$$$$~.......",
"........$$$$====$$$$$$$$$$$$$$$$$$$$$$$$$$$$$$$$$$$$$$$$$$$$$$$$$$$$$$$$$$$$$$$$$$$$........",
"........$$$$====$$$$$$$$$$$$$$$$$$$$$$$$$$$$$$$$$$$$$$$$$$$$$$$$$$$$$$$$$$$$$$$$$$$$........",
"........$$$$====$$$$$$$$$$$$$$$$$$$$$$$$$$$$$$$$$$$$$$$$$$$$$$$$$$$$$$$$$$$$$$$$$$$$........",
"........$$$$====$$$$$$$$$$$$$$$$$$$$$$$$$$$$$$$$$$$$$$$$$$$$$$$$$$$$$$$$$$$$$$$$$$$$........",
"........$$$$====$$$$$$$$$$$$$$$$$$$$$$$$$$$$$$$$$$$$$$$$$$$$$$$$$$$$$$$$$$$$$$$$$$$$........",
"........$$$$====$$$$$$$$$$$$$$$$$$$$$$$$$$$$$$$$$$$$$$$$$$$$$$$$$$$$$$$$$$$$$$$$$$$$........",
"........$$$$====$$$$$$$$$$$$$$$$$$$$$$$$$$$$$$$$$$$$$$$$$$$$$$$$$$$$$$$$$$$$$$$$$$$$........",
"........$$$$====${$$$$$$$$$$$$$$$$$$$$$$$$$$$$$$$$$$$$$$$$$$$$$$%..............%$$$$........",
"........$$$$====$$$$$$$$$$$$$$$$$$$$$]]$$$$$$$$$$]]$$$$$$$$$$$$$................$$$$........",
"........$$$$====$$$$$$$$$$$$$$$$$$$$$]]$$$$$$$$$$]]$$$$$$$$$$$$$%..............%$$$$........",
"........$$$$====$$$$$$$$$$$$$$$$$$$$$$$$$$$$$$$$$$$$$$$$$$$$$$$$$%............%$$$$$........",
"........$$$$====$$$$$$$$$$$$$$$$$$$$$$$$$$$$$$$$$$$$$$$$$$$$$$$$$$%.++.......%$$$$$$........",
"........$$$$====$$$$$$$$$$$$$$$$$$$$$$$$$$$$$$$$$$$$$$$$$$$$$$$$$$$%++++....%$$$$$$$........",
"........$$$$====$$$$$$$$$$$$$$$$$$$$$$$$$$$$$$$$$$$$$$$$$$$$$$$$$$$%++++....%$$$$$$$........",
"........$$$$====$$$$$$$$$$$$$$$$$$$$$$$$$$$$$$$$$$$$$$$$$$$$$$$$$$%.++.......%$$$$$$........",
"........$$$$====$$$$$$$$$$$$$$$$$$$$$$$$$$$$$$$$$$$$$$$$$$$$$$$$$#............#$$$$$........",
"........$$$$====$$$$$$$$$$$$$$$$$$$$$$$$$$$$$$$$$$$$$$$$$$$$$$$$$@............@$$$$$........",
"........$$$$====$$$$$$$$$$$$$$$$$$$$$$$$$$$$$$$$$$$$$$$$$$$$$$$$#..............#$$$$........",
"........$$$$====$$$$$$$$$$$$$$$$$$$$$$$$$$$$$$$$$$$$$$$$$$$$$$$$@..............@$$$$........",
"........$$$$====&$$$$$$$$$$$$$$$$$$$$$$$$$$$$$$$$$$$$$$$$$$$$$$$@..............@$$$$........",
"........$$$$====*$$$$$$$$$$$$$$$$$$$$$$$$$$$$$$$$$$$$$$$$$$$$$$$#..............#$$$$........",
"........$$$$=====&$$$$$$$$$$$$$$$$$$$$$$$$$$$$$$$$$$$$$$$$$$$$$$$@............@$$$$$........",
"........$$$$=====*$$$$$$$$$$$$$$$$$$$$$$$$$$$$$$$$$$$$$$$$$$$$$$$#............#$$$$$........",
"........$$$$*=====-$$$$$$$$$$$$$$$$$$$$$$$$$$$$$$$$$$$$$$$$$$$$$$$%..........%$$$$$$........",
"........$$$$&======-$$$$$$$$$$$$$$$$$$$$$$$$$$$$$$$$$$$$$$$$$$$$$$$%........%$$$$$$$........",
"........$$$$$*======*&$$$$$$$$$$$$$$$$$$$$$$$$$$$$$$$$$$$$$$$$$$$$$$#@....@#$$$$$$$$........",
"........$$$$$&========*&$$$$$$$$$$$$$$$$$$$$$$$$$$$$$$$$$$$$$$$$$$$$$$#@@#$$$$$$$$$$........",
"........#$$$$$-====================================''''''===*&$$$$$$$$$$$$$$$$$$$$$#........",
"........@$$$$$$-====================================''''======*&$$$$$$$$$$$$$$$$$$$@........",
".........#$$$$$$&*==================================''''======*&$$$$$$$$$$$$$$$$$$#.........",
".........@$$$$$$$$&*===============================''''''===*&$$$$$$$$$$$$$$$$$$$$@.........",
"..........%$$$$$$$$$$$$$$$$$$$$$$$$$$$$$$$$$$$$$$$$$$$$$$$$$$$$$$$$$$$$$$$$$$$$$$^++........",
" ..........%$$$$$$$$$$$$$$$$$$$$$$$$$$$$$$$$$$$$$$$$$$$$$$$$$$$$$$$$$$$$$$$$$$$$^+++....... ",
" ...........@#$$$$$$$$$$$$$$$$$$$$$$$$$$$$$$$$$$$$$$$$$$$$$$$$$$$$$$$$$$$$$$$$#@+++........ ",
"  ............@#$$$$$$$$$$$$$$$$$$$$$$$$$$$$$$$$$$$$$$$$$$$$$$$$$$$$$$$$$$$$#@..++........  ",
"  +......................................................................................+  ",
"   +....................................................................................+   ",
"    +..................................................................................+    ",
"     +................................................................................+     ",
"      +..............................................................................+      ",
"       +............................................................................+       ",
"         ..........................................................................         ",
"           ......................................................................           "};
