/* XPM */
static char * 0_xpm[] = {
"30 30 3 1",
" 	c None",
".	c #FEFEFE",
"+	c #FFFFFF",
"                              ",
"                              ",
"                              ",
"                              ",
"            .....             ",
"          ..+++++..           ",
"          ++.. ..++           ",
"         .+.     .+.          ",
"        .++       +++         ",
"        .+.       .+.         ",
"        ++.       .++         ",
"        ++         ++         ",
"        ++         ++         ",
"        ++         ++         ",
"        ++         ++         ",
"        ++         ++         ",
"        ++         ++         ",
"        ++         ++         ",
"        ++.       .++         ",
"        .+.       .+.         ",
"        .++       ++.         ",
"         .+.     .+.          ",
"         .++.   .++           ",
"          .+++++++.           ",
"            .....             ",
"                              ",
"                              ",
"                              ",
"                              ",
"                              "};
