/* XPM */
static char * 9bold_xpm[] = {
"21 26 3 1",
" 	c None",
".	c #FEFEFE",
"+	c #FFFFFF",
"                     ",
"      ......         ",
"     .+++++++.       ",
"    ++++++++++.      ",
"   .+++....++++.     ",
"  .+++.    .+++.     ",
"  .+++      .+++.    ",
"  +++.       +++.    ",
"  +++.       +++.    ",
"  +++.       ++++    ",
"  .+++      .++++    ",
"  .+++.    .+++++    ",
"   ++++...+++++++    ",
"   .++++++++.++++    ",
"    .++++++. +++.    ",
"      .....  +++.    ",
"             +++.    ",
"            .+++.    ",
"  .+++      .+++     ",
"  .+++.    .+++.     ",
"   +++++..+++++      ",
"   .++++++++++.      ",
"    ..++++++..       ",
"      ......         ",
"                     ",
"                     "};
