/* XPM */
static char * easy_xpm[] = {
"92 55 132 2",
"  	c #000000",
". 	c #969696",
"+ 	c #FFFFFF",
"@ 	c #ECECEC",
"# 	c #DCDCDC",
"$ 	c #B5B5B5",
"% 	c #A8A8A8",
"& 	c #B8B8B8",
"* 	c #797979",
"= 	c #C5C5C5",
"- 	c #F0F0F0",
"; 	c #FAFAFA",
"> 	c #EEEEEE",
", 	c #E0E0E0",
"' 	c #ABABAB",
") 	c #3A3A3A",
"! 	c #353535",
"~ 	c #B0B0B0",
"{ 	c #DEDEDE",
"] 	c #EFEFEF",
"^ 	c #EDEDED",
"/ 	c #9D9D9D",
"( 	c #0D0D0D",
"_ 	c #868686",
": 	c #ADADAD",
"< 	c #C3C3C3",
"[ 	c #6A6A6A",
"} 	c #F2F2F2",
"| 	c #5D5D5D",
"1 	c #747474",
"2 	c #F3F3F3",
"3 	c #E2E2E2",
"4 	c #2E2E2E",
"5 	c #161616",
"6 	c #E1E1E1",
"7 	c #E4E4E4",
"8 	c #A6A6A6",
"9 	c #F5F5F5",
"0 	c #C2C2C2",
"a 	c #A5A5A5",
"b 	c #9F9F9F",
"c 	c #B4B4B4",
"d 	c #E5E5E5",
"e 	c #474747",
"f 	c #FDFDFD",
"g 	c #D4D4D4",
"h 	c #AAAAAA",
"i 	c #9E9E9E",
"j 	c #C7C7C7",
"k 	c #535353",
"l 	c #898989",
"m 	c #ACACAC",
"n 	c #DBDBDB",
"o 	c #B2B2B2",
"p 	c #EAEAEA",
"q 	c #616161",
"r 	c #D9D9D9",
"s 	c #FCFCFC",
"t 	c #323232",
"u 	c #9C9C9C",
"v 	c #CBCBCB",
"w 	c #4D4D4D",
"x 	c #A7A7A7",
"y 	c #1C1C1C",
"z 	c #A4A4A4",
"A 	c #6D6D6D",
"B 	c #C1C1C1",
"C 	c #D3D3D3",
"D 	c #383838",
"E 	c #2A2A2A",
"F 	c #F6F6F6",
"G 	c #D8D8D8",
"H 	c #B6B6B6",
"I 	c #494949",
"J 	c #9A9A9A",
"K 	c #7A7A7A",
"L 	c #C6C6C6",
"M 	c #646464",
"N 	c #F8F8F8",
"O 	c #E9E9E9",
"P 	c #BCBCBC",
"Q 	c #8B8B8B",
"R 	c #404040",
"S 	c #F7F7F7",
"T 	c #878787",
"U 	c #EBEBEB",
"V 	c #E7E7E7",
"W 	c #B9B9B9",
"X 	c #666666",
"Y 	c #3D3D3D",
"Z 	c #FBFBFB",
"` 	c #D7D7D7",
" .	c #222222",
"..	c #929292",
"+.	c #C9C9C9",
"@.	c #A0A0A0",
"#.	c #858585",
"$.	c #848484",
"%.	c #585858",
"&.	c #9B9B9B",
"*.	c #CDCDCD",
"=.	c #DADADA",
"-.	c #CCCCCC",
";.	c #FEFEFE",
">.	c #A1A1A1",
",.	c #676767",
"'.	c #565656",
").	c #D0D0D0",
"!.	c #D5D5D5",
"~.	c #4F4F4F",
"{.	c #F4F4F4",
"].	c #C8C8C8",
"^.	c #F9F9F9",
"/.	c #6B6B6B",
"(.	c #6F6F6F",
"_.	c #AEAEAE",
":.	c #727272",
"<.	c #909090",
"[.	c #999999",
"}.	c #AFAFAF",
"|.	c #8D8D8D",
"1.	c #696969",
"2.	c #5B5B5B",
"3.	c #D6D6D6",
"4.	c #7C7C7C",
"5.	c #8A8A8A",
"6.	c #8C8C8C",
"7.	c #A2A2A2",
"8.	c #F1F1F1",
"9.	c #424242",
"0.	c #DFDFDF",
"a.	c #919191",
"                                                                                                                                                                                        ",
"                                                                                                                                                                                        ",
"                                                                                                                                                                                        ",
"                                                                                                                                                                                        ",
"                                                                                                                                                                                        ",
"                                                                                                                                                                                        ",
"                                                                                                                                                                                        ",
"                                                                                                                                                                                        ",
"                                                                                                                                                                                        ",
"                                                                                                                                                                                        ",
"                                                                                                                                                                                        ",
"                                                                                                                                                                                        ",
"                                                                                                                                                                                        ",
"                              . + + + + + + + + + + + + + + @                                                                                                                           ",
"                              . + + + + + + + + + + + + + + @                                                                                                                           ",
"                              . + + # $ $ $ $ $ $ $ $ $ $ $ %                                                                                                                           ",
"                              . + + &                                                                                                                                                   ",
"                              . + + &                                                                                                                                                   ",
"                              . + + &                                                                                                                                                   ",
"                              . + + &                                     * = # - ; > , ' )               ! ~ { ] ; ^ # / (     _ + + :               < + + [                           ",
"                              . + + &                                 ( < + + + + + + + + } |           1 2 + + + + + + + 3 4   5 2 + 6             5 } + 7                             ",
"                              . + + &                                 8 + + 9 0 a b c d + + ,         e - + f g h i c @ + + =     j + f k           l + + m                             ",
"                              . + + n o o o o o o o o o o o 1         p + 9 q         ( r + s t       u + + h         ) > + }     _ + + h           v + s w                             ",
"                              . + + + + + + + + + + + + + + x       y 2 9 <             z + + A       B + + w           x C C D   5 2 + #         E F + G                               ",
"                              . + + + + + + + + + + + + + + x                           o + + A       o + + H                       j + s I       . + + J                               ",
"                              . + + &                                           w K / L ; + + A       M N + + O P Q R               _ + + z       C + S 4                               ",
"                              . + + &                                   q B 7 N + + + + + + + A         T U + + + + f V W X         5 2 + r     Y ; + v                                 ",
"                              . + + &                                 m Z + + f p ` B / h + + A            ...+.] + + + + Z $         j + Z R   @.+ + #.                                ",
"                              . + + &                               $.+ + > / )         / + + A                   %.&.*.; + + .       _ + + i   =.+ ] (                                 ",
"                              . + + &                               -.+ ;.M             >.+ + A       X ,.'.            1 s + ).      5 2 + !.~.s + P                                   ",
"                              . + + &                               n + {.              ].+ + A       > + V               {.+ G         j + ^.o + + /.                                  ",
"                              . + + &                               = + + (.        5 _.;.+ + :.      g + ;.<.          [.+ + c         _ + + ^.+ 7                                     ",
"                              . + + n o o o o o o o o o o o o :.    Q + + } }._ |.~ V + S + + ].1.(   l f + ;.!.~ J h !.s + 2 2.        5 2 + + + :                                     ",
"                              . + + + + + + + + + + + + + + + z       B + + + + + + + 3.q Z + + + )     $ f + + + + + + + } 4.            j + + s ~.                                    ",
"                              . + + + + + + + + + + + + + + + z         5.r > Z 2 g 6.    7.8.s > t       /.v d {.; @ n h E               T + + G                                       ",
"                                                                                                                                          . + + &.                                      ",
"                                                                                                                                          G + S 4                                       ",
"                                                                                                                                        M s + v                                         ",
"                                                                                                                                  9.9.A 0.+ + 4.                                        ",
"                                                                                                                                  x + + + + `                                           ",
"                                                                                                                                  x + + + 0.R                                           ",
"                                                                                                                                  Y a.: _                                               ",
"                                                                                                                                                                                        ",
"                                                                                                                                                                                        ",
"                                                                                                                                                                                        ",
"                                                                                                                                                                                        ",
"                                                                                                                                                                                        ",
"                                                                                                                                                                                        ",
"                                                                                                                                                                                        ",
"                                                                                                                                                                                        ",
"                                                                                                                                                                                        ",
"                                                                                                                                                                                        ",
"                                                                                                                                                                                        ",
"                                                                                                                                                                                        ",
"                                                                                                                                                                                        "};
