/* XPM */
static char * hard_xpm[] = {
"92 55 104 2",
"  	c #000000",
". 	c #BDBDBD",
"+ 	c #FFFFFF",
"@ 	c #8C8C8C",
"# 	c #B8B8B8",
"$ 	c #969696",
"% 	c #D0D0D0",
"& 	c #ECECEC",
"* 	c #0D0D0D",
"= 	c #5B5B5B",
"- 	c #797979",
"; 	c #C5C5C5",
"> 	c #DCDCDC",
", 	c #F0F0F0",
"' 	c #FAFAFA",
") 	c #EEEEEE",
"! 	c #E0E0E0",
"~ 	c #ABABAB",
"{ 	c #3A3A3A",
"] 	c #F7F7F7",
"^ 	c #A4A4A4",
"/ 	c #848484",
"( 	c #E1E1E1",
"_ 	c #CECECE",
": 	c #868686",
"< 	c #D5D5D5",
"[ 	c #F2F2F2",
"} 	c #FBFBFB",
"| 	c #888888",
"1 	c #C3C3C3",
"2 	c #5D5D5D",
"3 	c #929292",
"4 	c #B7B7B7",
"5 	c #FDFDFD",
"6 	c #FEFEFE",
"7 	c #BCBCBC",
"8 	c #A6A6A6",
"9 	c #F5F5F5",
"0 	c #C2C2C2",
"a 	c #A5A5A5",
"b 	c #9F9F9F",
"c 	c #B4B4B4",
"d 	c #E5E5E5",
"e 	c #BABABA",
"f 	c #F8F8F8",
"g 	c #C1C1C1",
"h 	c #727272",
"i 	c #FCFCFC",
"j 	c #D4D4D4",
"k 	c #B0B0B0",
"l 	c #B6B6B6",
"m 	c #CBCBCB",
"n 	c #B2B2B2",
"o 	c #DBDBDB",
"p 	c #EAEAEA",
"q 	c #616161",
"r 	c #D9D9D9",
"s 	c #323232",
"t 	c #646464",
"u 	c #F4F4F4",
"v 	c #858585",
"w 	c #1C1C1C",
"x 	c #F3F3F3",
"y 	c #6D6D6D",
"z 	c #8D8D8D",
"A 	c #999999",
"B 	c #E9E9E9",
"C 	c #6B6B6B",
"D 	c #4D4D4D",
"E 	c #7A7A7A",
"F 	c #9D9D9D",
"G 	c #C6C6C6",
"H 	c #353535",
"I 	c #C8C8C8",
"J 	c #E4E4E4",
"K 	c #CCCCCC",
"L 	c #747474",
"M 	c #B1B1B1",
"N 	c #ACACAC",
"O 	c #D7D7D7",
"P 	c #AAAAAA",
"Q 	c #C7C7C7",
"R 	c #6A6A6A",
"S 	c #D6D6D6",
"T 	c #262626",
"U 	c #E7E7E7",
"V 	c #A1A1A1",
"W 	c #E8E8E8",
"X 	c #F9F9F9",
"Y 	c #989898",
"Z 	c #6F6F6F",
"` 	c #161616",
" .	c #AEAEAE",
"..	c #606060",
"+.	c #828282",
"@.	c #8B8B8B",
"#.	c #AFAFAF",
"$.	c #696969",
"%.	c #D2D2D2",
"&.	c #222222",
"*.	c #C0C0C0",
"=.	c #8A8A8A",
"-.	c #A2A2A2",
";.	c #F1F1F1",
"                                                                                                                                                                                        ",
"                                                                                                                                                                                        ",
"                                                                                                                                                                                        ",
"                                                                                                                                                                                        ",
"                                                                                                                                                                                        ",
"                                                                                                                                                                                        ",
"                                                                                                                                                                                        ",
"                                                                                                                                                                                        ",
"                                                                                                                                                                                        ",
"                                                                                                                                                                                        ",
"                                                                                                                                                                                        ",
"                                                                                                                                                                                        ",
"                                                                                                                                                                                        ",
"                              . + + @                     # + + $                                                                                 % + &                                 ",
"                              . + + @                     # + + $                                                                                 % + &                                 ",
"                              . + + @                     # + + $                                                                                 % + &                                 ",
"                              . + + @                     # + + $                                                                                 % + &                                 ",
"                              . + + @                     # + + $                                                                                 % + &                                 ",
"                              . + + @                     # + + $                                                     * =                         % + &                                 ",
"                              . + + @                     # + + $           - ; > , ' ) ! ~ {             ] + ^   / ( ' _         : < [ } [ < |   % + &                                 ",
"                              . + + @                     # + + $       * 1 + + + + + + + + [ 2           ] + ^ 3 } + + _     * 4 5 + + + + + 6 7 % + &                                 ",
"                              . + + @                     # + + $       8 + + 9 0 a b c d + + !           ] + e f f g ^ h     0 + + i j k l > + + 9 + &                                 ",
"                              . + + m n n n n n n n n n n o + + $       p + 9 q         * r + i s         ] + ' p 2         t } + u v         ~ 5 + + &                                 ",
"                              . + + + + + + + + + + + + + + + + $     w x 9 1             ^ + + y         ] + + z           % + + A             m + + &                                 ",
"                              . + + + + + + + + + + + + + + + + $                         n + + y         ] + )             , + B *             C 6 + &                                 ",
"                              . + + @                     # + + $                 D E F G ' + + y         ] + >           H 6 + I                 , + &                                 ",
"                              . + + @                     # + + $         q g J f + + + + + + + y         ] + K           L + + M                 ( + &                                 ",
"                              . + + @                     # + + $       N } + + 5 p O g F P + + y         ] + Q           R + + M                 S + &                                 ",
"                              . + + @                     # + + $     / + + ) F {         F + + y         ] + Q           T 5 + I                 U + &                                 ",
"                              . + + @                     # + + $     K + 6 t             V + + y         ] + Q             ) + W               { X + &                                 ",
"                              . + + @                     # + + $     o + u               I + + y         ] + Q             K + + Y             # + + &                                 ",
"                              . + + @                     # + + $     ; + + Z         `  .6 + + h         ] + Q             ..} + x +.        $ X + + &                                 ",
"                              . + + @                     # + + $     @.+ + [ #.: z k U + ] + + I $.*     ] + Q               0 + + } %. .k S 6 + J + &                                 ",
"                              . + + @                     # + + $       g + + + + + + + S q } + + + {     ] + Q               &.% + + + + + + + *.a + &                                 ",
"                              . + + @                     # + + $         =.r ) } x j @     -.;.i ) s     ] + Q                   z < [ } u r z   ^ + &                                 ",
"                                                                                                                                                                                        ",
"                                                                                                                                                                                        ",
"                                                                                                                                                                                        ",
"                                                                                                                                                                                        ",
"                                                                                                                                                                                        ",
"                                                                                                                                                                                        ",
"                                                                                                                                                                                        ",
"                                                                                                                                                                                        ",
"                                                                                                                                                                                        ",
"                                                                                                                                                                                        ",
"                                                                                                                                                                                        ",
"                                                                                                                                                                                        ",
"                                                                                                                                                                                        ",
"                                                                                                                                                                                        ",
"                                                                                                                                                                                        ",
"                                                                                                                                                                                        ",
"                                                                                                                                                                                        ",
"                                                                                                                                                                                        ",
"                                                                                                                                                                                        ",
"                                                                                                                                                                                        "};
