/* XPM */
static char *number3_xpm[] = {
    "92 136 18 1",
    " 	c None",
    ".	c #150000",
    "+	c #150001",
    "@	c #140000",
    "#	c #4F3F3E",
    "$	c #C4BEBA",
    "%	c #FFFEF8",
    "&	c #8A7F7C",
    "*	c #FFFEF9",
    "=	c #FAF9F1",
    "-	c #F0EFE4",
    ";	c #ECEADE",
    ">	c #F5F4EB",
    ",	c #FEFEF8",
    "'	c #150100",
    ")	c #7B6E6C",
    "!	c #988E8B",
    "~	c #FFFFF8",
    "           ................................++++++................................           ",
    "         ...................................++++...................................         ",
    "       @.....................................++.....................................@       ",
    "      @..............................................................................@      ",
    "     @................................................................................@     ",
    "    @..................................................................................@    ",
    "   @....................................................................................@   ",
    "  @......................................................................................@  ",
    "  ............#$%%%%%%%%%%%%%%%%%%%%%%%%%%%%%%%%%%%%%%%%%%%%%%%%%%%%%%%%%%%%$#............  ",
    " ...........#$%%%%%%%%%%%%%%%%%%%%%%%%%%%%%%%%%%%%%%%%%%%%%%%%%%%%%%%%%%%%%%%%$#........... ",
    " ..........&%%%%%%%%%%%%%%%%%%%%%%%%%%%%%%%%%%%%%%%%%%%%%%%%%%%%%%%%%%%%%%%%%%%%&.......... ",
    "..........&%%%*%%%%%%%%%%%%%%%%%%%%%%%%%%%%%%%%%%%%%%%%%%%%%%%%%%%%%%%%%%%%%%%%%%&..........",
    ".........#%%%%%%%%%%%%%%%%%%%%=-;;;;;;;;;;;;;;;;;;;;;;;;;;;;;;;;;;;;;;;;-=%%%%%%%%#.........",
    ".........$%%%%%%%%%%%%%%%%%%=-;;;;;;;;;;;;;;;;;;;;;;;;;;;;;;;;;;;;;;;;;;;;-=%%%%%%$.........",
    "........#%%%%%%%%%%%%%%%%%%%=-;;;;;;;;;;;;;;;;;;;;;;;;;;;;;;;;;;;;;;;;;;;;;;>%%%%%%#........",
    "........$%%%%%%%%%%%%%%%%%%%%%=-;;;;;;;;;;;;;;;;;;;;;;;;;;;;;;;;;;;;;;;;;;;;;>%%%%%$........",
    "........%%%%%%%%%%$##$%%%%%%%%%%%%%%%%%%%%%%%%%%%%%%%%%%%%%%%%%%%%%%=-;;;;;;;;=%%%%%........",
    "........%%%%%%%%$#....#$%%%%%%%%%%%%%%%%%%%%%%%%%%%%%%%%%%%%%%%%%%%%%%=-;;;;;;-%%%%%........",
    "........%%%%%%%&........&%%%%%%%%%%%%%%%%%%%%%%%%%%%%%%%%%%%%%%%%%%%%%%%>;;;;;;=%%%%........",
    "........%%%%%%&..........&%%%%%%%%%%%%%%%%%%%%%%%%%%%%%%%%%%%%%%%%%%%%%%%>;;;;;-%%%%........",
    "........%%%%%$............$%%%%%%%%%%%%%%%%%%%%%%%%%%%%%%%%%%%%%%%%%%%%%%%-;;;;;%%%%........",
    "........%%%%%#............#%%%%%%%%%%%%%%%%%%%%%%%%%%%%%%%%%%%%%%%%%%%%%%%=;;;;;%%%%........",
    "........%%%%$..............$%%%%%%%%%%%%%%%%%%%%%%%%%%%%%%%%%%%%%%%%%%%%%%%-;;;;%%%%........",
    "........%%%%#..............#%%%%%%%%%%%%%%%%%%%%%%%%%%%%%%%%%%%%%%%%%%%%%%%=;;;;%%%%........",
    "........%%%%#..............#%%%%%%%%%%%%%%%%%%%%%%%%%%%%%%%%%%%%%%%%%%%%%%%%;;;;%%%%........",
    "........%%%%$..............$%%%%%%%%%%%%%%%%%%%%%%%%%%%%%%%%%%%%%%%%%**%%%%%;;;;%%%%........",
    "........%%%%%#............#%%%%%%%%%%%%%%%%%%%%%%%%%%%%%%%%%%%%%%%%%%**%%%%%;;;;%%%%........",
    "........%%%%%$............$%%%%%%%%%%%%%%%%%%%%%%%%%%%%%%%%%%%%%%%%%%%%%%%%%;;;;%%%%........",
    "........%%%%%%&..........&%%%%%%%%%%%%%%%%%%%%%%%%%%%%%%%%%%%%%%%%%%%%%%%%%%;;;;%%%%........",
    "........%%%%%%%&........&%%%%%%%%%%%%%%%%%%%%%%%%%%%%%%%%%%%,%%%%%%%%%%%%%%%;;;;%%%%........",
    "........%%%%%%%&........&%%%%%%%%%%%%%%%%%%%%%%%%%%%%%%%%%%%%%%%%%%%%%%%%%%%;;;;%%%%........",
    "........%%%%%%&..........&%%%%%%%%%%%%%%%%%%%%%%%%%%%%%%%%%%%%%%%%%%%%%%%%%%;;;;%%%%........",
    "........%%%%%&............&%%%%%%%%%%%%%%%%%%%%%%%%%%%%%%%%%%%%%%%%%%%%%%%%%;;;;%%%%........",
    "........%%%%&..............&%%%%%%%%%%%%%%%%%%%%%%%%%%%%%%%%%%%%%%%%%%%%%%%%;;;;%%%%........",
    "........%%%%................%%%%%%%%%%%%%%%%%%%%%%%%%%%%%%%%%%%%%%%%%%%%%%%%;;;;%%%%........",
    "........%%%%&..............&%%%%%%%%%%%%%%%%%%%%%%%%%%%%%%%%%%%%%%%%%%%%%%%%;;;;%%%%........",
    "........%%%%%%%%%%%%%%%%%%%%%%%%%%%%%%%%%%%%%%%%%%%%%%%%%%%%%%%%%%%%%%%%%%%%;;;;%%%%........",
    "........%%%%%%%%%%%%%%%%%%%%%%%%%%%%%%%%%%%%%%%%%%%%%%%%%%%%%%%%%%%%%%%%%%%%;;;;%%%%.......'",
    "........%%%%%%%%%%%%%%%%%%%%%%%%%%%%%%%%%%%%%%%%%%%%%%%%%%%%%%%%%%%%%%%%%%%%;;;;%%%%........",
    "........%%%%%%%%%%%%%%%%%%%%%%%%%%%%%%%%%%%%%%%%%%%%%%%%%%%%%%%%%%%%%%%%%%%%;;;;%%%%........",
    "........%%%%%%%%%%%%%%%%%%%%%%%%%%%%%%%%%%%%%%%%%%%%%%%%%%%%%%%%%%%%%%%%%%%%;;;;%%%%........",
    "........%%%%%%%%%%%%%%%%%%%%%%%%%%%%%%%%%%%%%%%%%%%%%%%%%%%%%%%%%%%%%%%%%%%%;;;;%%%%........",
    "........%%%%%%%%%%%%%%%%%%%%%%%%%%%%%%%%%%%%%%%%%%%%%%%%%%%%%%%%%%%%%%%%%%%%;;;;%%%%........",
    "........%%%%%%%%%%%%%%%%%%%%%%%%%%%%%%%%%%%%%%%%%%%%%%%%%%%%%%%%%%%%%%%%%%%%;;;;%%%%........",
    "........%%%%%==%%%%%%%%%%%%%%%%%%%%%%%%%%%%%%%%%%%%%%%%%%%%%%%%%%%%%%%%%%%%%;;;;%%%%........",
    "........%%%%%--%%%%%%%%%%%%%%%%%%%%%%%%%%%%%%%%%%%%%%%%%%%%%%%%%%%%%%%%%%%%%;;;;%%%%........",
    "........%%%%=;;=%%%%%%%%%%%%%%%%%%%%%%%%%%%%%%%%%%%%%%%%%%%%%%%%%%%%%%%%%%%%;;;;%%%%........",
    "........%%%%-;;-%%%%%%%%%%%%%%%%%%%%%%%%%%%%%%%%%%%%%%%%%%%%%%%%%%%%%%%%%%%%;;;;%%%%........",
    "........%%%%;;;;%%%%%%%%%%%%%%%%%%$#................#$%%%%%%%%%%%%%%%%%%%%%%;;;;%%%%........",
    "........%%%%;;;;%%%%%%%%%%%%%%%%%)....................#$%%%%%%%%%%%%%%%%%%%%;;;;%%%%........",
    "........%%%%;;;;%%%%%%%%%%%%%%%%$.......................&%%%%%%%%%%%%%%%%%%%;;;;%%%%........",
    "........%%%%;;;;%%%%%%%%%%%%%%%%#........................&%%%%%%%%%%%%%%%%%%;;;;%%%%........",
    "........%%%%;;;;%%%%%%%%%%%%%%%%......#$%%%%%%%%$#........$%%%%%%%%%%%%%%%%%;;;;%%%%........",
    "........%%%%;;;;%%%%%%%%%%%%%%%%.....!%%%%%%%%%%%%$#......#%%%%%%%%%%%%%%%%%;;;;%%%%........",
    "........%%%%;;;;%%%%%%%%%%%%%%%%....#%%%%%%%%%%%%%%%&......$%%%%%%%%%%%%%%%%;;;;%%%%........",
    "........%%%%;;;;%%%%%%%%%%%%%%%%....$%%%%%%%%%%%%%%%%&.....#%%%%%%%%%%%%%%%%;;;;%%%%........",
    "........%%%%;;;;%%%%%%%%%%%%%%%%....$%%%%%%%%%%%%%%%%%#.....%%%%%%%%%%%%%%%%;;;;%%%%........",
    "........%%%%;;;;%%%%%%%%%%%%%%%%....#%%%%%%%%%%%%%%%%%$.....%%%%%%%%%%%%%%%%;;;;%%%%........",
    "........%%%%;;;;%%%%%%%%%%%%%%%%.....!%%%%%%%%%%%%%%%%%#....%%%%%%%%%%%%%%%%;;;;%%%%........",
    "........%%%%;;;;%%%%%%%%%%%%%%%%......#$%%%%%%%%%%%%%%%$....%%%%%%%%%%%%%%%%;;;;%%%%........",
    "........%%%%;;;;%%%%%%%%%%%%%%%%#..............&%%%%%%%$....%%%%%%%%%%%%%%%%;;;;%%%%........",
    "........%%%%;;;;%%%%%%%%%%%%%%%%$...............%%%%%%%#....%%%%%%%%%%%%%%%%;;;;%%%%........",
    "........%%%%;;;;%%%%%%%%%%%%%%%%%).............&%%%%%%$.....%%%%%%%%%%%%%%%%;;;;%%%%........",
    "........%%%%;;;;%%%%%%%%%%%%%%%%%%$#..........&%%%%%%%#.....%%%%%%%%%%%%%%%%;;;;%%%%........",
    "........%%%%;;;;%%%%%%%%%%%%%%%%%%%%$#.......#%%%%%%%$......%%%%%%%%%%%%%%%%;;;;%%%%........",
    "........%%%%;;;;%%%%%%%%%%%%%%%%%%%%%%!......$%%%%%%%#......%%%%%%%%%%%%%%%%;;;;%%%%........",
    "........%%%%;;;;%%%%%%%%%%%%%%%%%%%%%%%#....#%%%%%%%$.......%%%%%%%%%%%%%%%%;;;;%%%%........",
    "........%%%%;;;;%%%%%%%%%%%%%%%%%%%%%%%$....$%%%%%%%#.......%%%%%%%%%%%%%%%%;;;;%%%%........",
    "........%%%%;;;;%%%%%%%%%%%%%%%%%%%%%%%$....$%%%%%%%#.......%%%%%%%%%%%%%%%%;;;;%%%%........",
    "........%%%%;;;;%%%%%%%%%%%%%%%%%%%%%%%#....#%%%%%%%$.......%%%%%%%%%%%%%%%%;;;;%%%%........",
    "........%%%%;;;;%%%%%%%%%%%%%%%%%%%%%%!......$%%%%%%%#......%%%%%%%%%%%%%%%%;;;;%%%%........",
    "........%%%%;;;;%%%%%%%%%%%%%%%%%%%%$#.......#%%%%%%%$......%%%%%%%%%%%%%%%%;;;;%%%%........",
    "........%%%%;;;;%%%%%%%%%,,,%%%%%%$#..........&%%%%%%%#.....%%%%%%%%%%%%%%%%;;;;%%%%........",
    "........%%%%;;;;%%%%%%%%,,,,%%%%%).............&%%%%%%$.....%%%%%%%%%%%%%%%%;;;;%%%%........",
    "........%%%%;;;;%%%%%%%%,,,,%%%%$...............%%%%%%%#....%%%%%%%%%%%%%%%%;;;;%%%%........",
    "........%%%%;;;;%%%%%%%%%,,%%%%%#..............&%%%%%%%$....%%%%%%%%%%%%%%%%;;;;%%%%........",
    "........%%%%;;;;%%%%%%%%%%%%%%%%......#$%%%%%%%%%%%,%%%$....%%%%%%%%%%%%%%%%;;;;%%%%........",
    "........%%%%;;;;%%%%%%%%%%%%%%%%.....!%%%%%%%%%%%%%%%%%#....%%%%%%%%%%%%%%%%;;;;%%%%........",
    "........%%%%;;;;%%%%%%%%%%%%%%%%....#%%%%%%%%%%%%%%%%%$.....%%%%%%%%%%%%%%%%;;;;%%%%........",
    "........%%%%;;;;%%%%%%%%%%%%%%%%....$%%%%%%%%%%%%%%%%%#.....%%%%%%%%%%%%%%%%;;;;%%%%........",
    "........%%%%;;;;%%%%%%%%%%%%%%%%....$%%%%%%%%%**%%%%%&.....#%%%%%%%%%%%%%%%%;;;;%%%%........",
    "........%%%%;;;;%%%%%%%%%%%%%%%%....#%%%%%%%%***%%%%&......$%%%%%%%%%%%%%%%%;;;;%%%%........",
    "........%%%%;;;;%%%%%%%%%%%%%%%%.....!%%%%%%%**%%%$#......#%%%%%%%%%%%%%%%%%;;;;%%%%........",
    "........%%%%;;;;%%%%%%%%%%%%%%%%......#$%%%%%%%%$#........$%%%%%%%%%%%%%%%%%;;;;%%%%........",
    "........%%%%;;;;%%%%%%%%%%%%%%%%#........................&%%%%%%%%%%%%%%%%%%;;;;%%%%........",
    "........%%%%;;;;%%%%%%%%%%%%%%%%$.......................&%%%%%%%%%%%%%%%%%%%;;;;%%%%........",
    "........%%%%;;;;%%%%%%%%%%%%%%%%%)....................#$%%%%%%%%%%%%%%%%%%%%;;;;%%%%........",
    "........%%%%;;;;%%%%%%%%%%%%%%%%%%$#................#$%%%%%%%%%%%%%%%%%%%%%%;;;;%%%%........",
    "........%%%%;;;;%%%%%%%%%%%%%%%%%%%%%%%%%%%%%%%%%%%%%%%%%%%%%%%%%%%%%%%%%%%%-;;-%%%%........",
    "........%%%%;;;;%%%%%%%%%%%%%%%%%%%%%%%%%%%%%%%%%%%%%%%%%%%%%%%%%%%%%%%%%%%%=;;=%%%%........",
    "........%%%%;;;;%%%%%%%%%%%%%%%%%%%%%%%%%%%%%%%%%%%%%%%%%%%%%%%%%%%%%%%%%%%%%--%%%%%........",
    "........%%%%;;;;%%%%%%%%%%%%%%%%%%%%%%%%%%%%%%%%%%%%%%%%%%%%%%%%%%%%%%%%%%%%%==%%%%%........",
    "........%%%%;;;;%%%%%%%%%%%%%%%%%%%%%%%%%%%%%%%%%%%%%%%%%%%%%%%%%%%%%%%%%%%%%%%%%%%%........",
    "........%%%%;;;;%%%%%%%%%%%%%%%%%%%%%%%%%%%%%%%%%%%%%%%%%%%%%%%%%%%%%%%%%%%%%%%%%%%%........",
    "........%%%%;;;;%%%%%%%%%%%%%%%%%%%%%%%%%%%%%%%%%%%%%%%%%%%%%%%%%%%%%%%%%%%%%%%%%%%%........",
    "........%%%%;;;;%%%%%%%%%%%%%%%%%%%%%%%%%%%%%%%%%%%%%%%%%%%%%%%%%%%%%%%%%%%%%%%%%%%%........",
    "........%%%%;;;;%%%%%%%%%%%%%%%%%%%%%%%%%%%%%%%%%%%%%%%%%%%%%%%%%%%%%%%%%%%%%%%%%%%%........",
    "........%%%%;;;;%%%%%%%%%%%%%%%%%%%%%%%%%%%%%%%%%%%%%%%%%%%%%%%%%%%%%%%%%%%%%%%%%%%%........",
    "........%%%%;;;;%%%%%%%%%%%%%%%%%%%%%%%%%%%%%%%%%%%%%%%%%%%%%%%%%%%%%%%%%%%%%%%%%%%%........",
    "........%%%%;;;;%%%%%%%%%%%%%%%%%%%%%%%%%%%%%%%%%%%%%%%%%%%%%%%%%%%%%%%%%%%%%%%%%%%%........",
    "........%%%%;;;;%%%%%%%%%%%%%%%%%%%%%%%%%%%%%%%%%%%%%%%%%%%%%%%%&..............&%%%%........",
    "........%%%%;;;;%~~%%%%%%%%%%%%%%%%%%%%%%%%%%%%%%%%%%%%%%%%%%%%%................%%%%........",
    "........%%%%;;;;%~~%%%%%%%%%%%%%%%%%%%%%%%%%%%%%%%%%%%%%%%%%%%%%&..............&%%%%........",
    "........%%%%;;;;%%%%%%%%%%%%%%%%%%%%%%%%%%%%%%%%%%%%%%%%%%%%%%%%%&............&%%%%%........",
    "........%%%%;;;;%%%%%%%%%%%%%%%%%%%%%%%%%%%%%%%%%%%%%%%%%%%%%%%%%*&..........&%%%%%%........",
    "........%*%%;;;;%%%%%%%%%%%%%%%%%%%%%%%%%%%%%%%%%%%%%%%%%%%%%%%%%%%&........&%%%%%%%........",
    "........%*%%;;;;%%%%%%%%%%%%%%%%%%%%%%%%%%%%%%%%%%%%%%%%%%%%%%%%%%%&........&%%%%%%%........",
    "........%%%%;;;;%%%%%%%%%%%%%%%%%%%%%%%%%%%%%%%%%%%%%%%%%%%%%%%%%%&..........&%%%%%%........",
    "........%%%%;;;;%%%%%%%%%%%%%%%%%%%%%%%%%%%%%%%%%%%%%%%%%%%%%%%%%$............$%%%%%........",
    "........%%%%;;;;%%%%%%%%%%%%%%%%%%%%%%%%%%%%%%%%%%%%%%%%%%%%%%%%%#............#%%%%%........",
    "........%%%%;;;;%%%%%%%%%%%%%%%%%%%%%%%%%%%%%%%%%%%%%%%%%%%%%%%%$..............$%%%%........",
    "........%%%%;;;;%%%%%%%%%%%%%%%%%%%%%%%%%%%%%%%%%%%%%%%%%%%%%%%%#..............#%%%%........",
    "........%%%%;;;;=%%%%%%%%%%%%%%%%%%%%%%%%%%%%%%%%%%%%%%%%%%%%%%%#..............#%%%%........",
    "........%%%%;;;;-%%%%%%%%%%%%%%%%%%%%%%%%%%%%%%%%%%%%%%%%%%%%%%%$..............$%%%%........",
    "........%%%%;;;;;=%%%%%%%%%%%%%%%%%%%%%%%%%%%%%%%%%%%%%%%%%%%%%%%#............#%%%%%........",
    "........%%%%;;;;;-%%%%%%%%%%%%%%%%%%%%%%%%%%%%%%%%%%%%%%%%%%%%%%%$............$%%%%%........",
    "........%%%%-;;;;;>%%%%%%%%%%%%%%%%%%%%%%%%%%%%%%%%%%%%%%%%%%%%%%%&..........&%%%%%%........",
    "........%%%%=;;;;;;>%%%%%%%%%%%%%%%%%%%%%%%%%%%%%%%%%%%%%%%%%%%%%%%&........&%%%%%%%........",
    "........%%%%%-;;;;;;-=%%%%%%%%%%%%%%%%%%%%%%%%%%%%%%%%%%%%%%%%%%%%%%$#....#$%%%%%%%%........",
    "........%%%%%=;;;;;;;;-=%%%%%%%%%%%%%%%%%%%%%%%%%%%%%%%%%%%%%%%%%%%%%%$##$%%%%%%%%%%........",
    "........$%%%%%>;;;;;;;;;;;;;;;;;;;;;;;;;;;;;;;;;;;;;;;;;;;;;-=%%%%%%%%%%%%%%%%%%%%%$........",
    "........#%%%%%%>;;;;;;;;;;;;;;;;;;;;;;;;;;;;;;;;;;;;;;;;;;;;;;-=%%%%%%%%%%%%%%%%%%%#........",
    ".........$%%%%%%=-;;;;;;;;;;;;;;;;;;;;;;;;;;;;;;;;;;;;;;;;;;;;-=%%%%%%%%%%%%%%%%%%$.........",
    ".........#%%%%%%%%=-;;;;;;;;;;;;;;;;;;;;;;;;;;;;;;;;;;;;;;;;-=%%%%%%%%%%%%%%%%%%%%#.........",
    "..........&%%%%%%%%%%%%%%%%%%%%%%%%%%%%%%%%%%%%%%%%%%%%%%%%%%%%%%%%%%%%%%%%%%%%%%&..........",
    " ..........&%%%%%%%%%%%%%%%%%%%%%%%%%%%%%%%%%%%%%%%%%%%%%%%%%%%%%%%%%%%%%%%%%%%%&.......... ",
    " ...........#$%%%%%%%%%%%%%%%%%%%%%%%%%%%%%%%%%%%%%%%%%%%%%%%%%%%%%%%%%%%%%%%%$#........... ",
    "  ............#$%%%%%%%%%%%%%%%%%%%%%%%%%%%%%%%%%%%%%%%%%%%%%%%%%%%%%%%%%%%%$#............  ",
    "  @......................................................................................@  ",
    "   @....................................................................................@   ",
    "    @..................................................................................@    ",
    "     @................................................................................@     ",
    "      @..................................................................@@..........@      ",
    "       @................................................................@@@@........@       ",
    "         ..............................................................@@@@@@......         ",
    "           ...........................................................@@@@@@@@...           "};
