/* XPM */
static char * start_xpm[] = {
"92 55 123 2",
"  	c #000000",
". 	c #404040",
"+ 	c #B4B4B4",
"@ 	c #D5D5D5",
"# 	c #E8E8E8",
"$ 	c #F8F8F8",
"% 	c #F7F7F7",
"& 	c #EBEBEB",
"* 	c #D9D9D9",
"= 	c #A4A4A4",
"- 	c #424242",
"; 	c #B2B2B2",
"> 	c #F5F5F5",
", 	c #FFFFFF",
"' 	c #969696",
") 	c #696969",
"! 	c #161616",
"~ 	c #DDDDDD",
"{ 	c #BCBCBC",
"] 	c #A6A6A6",
"^ 	c #AFAFAF",
"/ 	c #C3C3C3",
"( 	c #E9E9E9",
"_ 	c #A5A5A5",
": 	c #2E2E2E",
"< 	c #838383",
"[ 	c #FDFDFD",
"} 	c #F4F4F4",
"| 	c #7C7C7C",
"1 	c #FAFAFA",
"2 	c #F9F9F9",
"3 	c #666666",
"4 	c #D2D2D2",
"5 	c #8B8B8B",
"6 	c #A2A2A2",
"7 	c #C6C6C6",
"8 	c #1C1C1C",
"9 	c #262626",
"0 	c #EAEAEA",
"a 	c #0D0D0D",
"b 	c #5B5B5B",
"c 	c #EEEEEE",
"d 	c #FBFBFB",
"e 	c #C5C5C5",
"f 	c #B8B8B8",
"g 	c #C9C9C9",
"h 	c #CCCCCC",
"i 	c #797979",
"j 	c #DCDCDC",
"k 	c #F0F0F0",
"l 	c #E0E0E0",
"m 	c #ABABAB",
"n 	c #3A3A3A",
"o 	c #848484",
"p 	c #E1E1E1",
"q 	c #CECECE",
"r 	c #DBDBDB",
"s 	c #C1C1C1",
"t 	c #F2F2F2",
"u 	c #5D5D5D",
"v 	c #929292",
"w 	c #999999",
"x 	c #E5E5E5",
"y 	c #A7A7A7",
"z 	c #535353",
"A 	c #B7B7B7",
"B 	c #4D4D4D",
"C 	c #C2C2C2",
"D 	c #9F9F9F",
"E 	c #BABABA",
"F 	c #727272",
"G 	c #C7C7C7",
"H 	c #FEFEFE",
"I 	c #C4C4C4",
"J 	c #959595",
"K 	c #454545",
"L 	c #616161",
"M 	c #FCFCFC",
"N 	c #323232",
"O 	c #989898",
"P 	c #DEDEDE",
"Q 	c #F3F3F3",
"R 	c #6D6D6D",
"S 	c #8D8D8D",
"T 	c #565656",
"U 	c #9E9E9E",
"V 	c #CACACA",
"W 	c #ECECEC",
"X 	c #B3B3B3",
"Y 	c #585858",
"Z 	c #7A7A7A",
"` 	c #9D9D9D",
" .	c #3D3D3D",
"..	c #707070",
"+.	c #E4E4E4",
"@.	c #383838",
"#.	c #C8C8C8",
"$.	c #B1B1B1",
"%.	c #ACACAC",
"&.	c #D7D7D7",
"*.	c #AAAAAA",
"=.	c #878787",
"-.	c #A1A1A1",
";.	c #646464",
">.	c #494949",
",.	c #808080",
"'.	c #474747",
").	c #CBCBCB",
"!.	c #6F6F6F",
"~.	c #AEAEAE",
"{.	c #D8D8D8",
"].	c #B0B0B0",
"^.	c #7D7D7D",
"/.	c #868686",
"(.	c #E7E7E7",
"_.	c #2A2A2A",
":.	c #D6D6D6",
"<.	c #EFEFEF",
"[.	c #DADADA",
"}.	c #8A8A8A",
"|.	c #D4D4D4",
"1.	c #8C8C8C",
"2.	c #F1F1F1",
"                                                                                                                                                                                        ",
"                                                                                                                                                                                        ",
"                                                                                                                                                                                        ",
"                                                                                                                                                                                        ",
"                                                                                                                                                                                        ",
"                                                                                                                                                                                        ",
"                                                                                                                                                                                        ",
"                                                                                                                                                                                        ",
"                                                                                                                                                                                        ",
"                                                                                                                                                                                        ",
"                                                                                                                                                                                        ",
"                                                                                                                                                                                        ",
"                                                                                                                                                                                        ",
"                                      . + @ # $ % & * = -                                                                                                                               ",
"                                    ; > , , , , , , , , > '             ) ' ' !                                                                 ) ' ' !                                 ",
"                                  ; , , , ~ { ] ^ / ( , , , _           ; , , :                                                                 ; , , :                                 ",
"                                < [ , } |             ' 1 , 2 3         ; , , :                                                                 ; , , :                                 ",
"                                4 , , 5                 6 , , 7         ; , , :                                                                 ; , , :                                 ",
"                                & , 2 8                 9 1 , 0         ; , , :                                                       a b       ; , , :                                 ",
"                                c , d 9                   + e f     g , , , , , , h         i e j k 1 c l m n             % , =   o p 1 q   g , , , , , , h                             ",
"                                r , , s a                           g , , , , , , h     a / , , , , , , , , t u           % , = v d , , q   g , , , , , , h                             ",
"                                w , , , x y z                       : n A , , B n :     ] , , > C _ D + x , , l           % , E $ $ s = F   : n A , , B n :                             ",
"                                  G , , , , H # I J K                   ; , , :         0 , > L         a * , M N         % , 1 0 u             ; , , :                                 ",
"                                    O P H , , , , , [ x + z             ; , , :       8 Q > /             = , , R         % , , S               ; , , :                                 ",
"                                        T U V W , , , , , M X           ; , , :                           ; , , R         % , c                 ; , , :                                 ",
"                                                Y U 4 $ , , , s         ; , , :                   B Z ` 7 1 , , R         % , j                 ; , , :                                 ",
"                                                       .C , , M ..      ; , , :           L s +.$ , , , , , , , R         % , h                 ; , , :                                 ",
"                              | = = @.                    #., , $.      ; , , :         %.d , , [ 0 &.s ` *., , R         % , G                 ; , , :                                 ",
"                              ; , , |                     =., , #.      ; , , :       o , , c ` n         ` , , R         % , G                 ; , , :                                 ",
"                              ' , , ;                     -., , E       ; , , :       h , H ;.            -., , R         % , G                 ; , , :                                 ",
"                              >.$ , % b                 ! j , , ,.      ; , , :       r , }               #., , R         % , G                 ; , , :                                 ",
"                                E , , > D             '.)., , *         ; , , n       e , , !.        ! ~.H , , F         % , G                 ; , , n                                 ",
"                                9 {., , , ( g E A e &.1 , , & -         ]., , ; ^.!.  5 , , t ^ /.S ].(., % , , #.) a     % , G                 ]., , ; ^.!.                            ",
"                                  _.s d , , , , , , , , , p ;.          o , , , , h     s , , , , , , , :.L d , , , n     % , G                 o , , , , h                             ",
"                                      L ; P <.2 2 0 [.e /.                %.c d } {       }.* c d Q |.1.    6 2.M c N     % , G                   %.c d } {                             ",
"                                                                                                                                                                                        ",
"                                                                                                                                                                                        ",
"                                                                                                                                                                                        ",
"                                                                                                                                                                                        ",
"                                                                                                                                                                                        ",
"                                                                                                                                                                                        ",
"                                                                                                                                                                                        ",
"                                                                                                                                                                                        ",
"                                                                                                                                                                                        ",
"                                                                                                                                                                                        ",
"                                                                                                                                                                                        ",
"                                                                                                                                                                                        ",
"                                                                                                                                                                                        ",
"                                                                                                                                                                                        ",
"                                                                                                                                                                                        ",
"                                                                                                                                                                                        ",
"                                                                                                                                                                                        ",
"                                                                                                                                                                                        ",
"                                                                                                                                                                                        ",
"                                                                                                                                                                                        "};
